<svg version="1.1" id="Layer_1" xmlns="http://www.w3.org/2000/svg" xmlns:xlink="http://www.w3.org/1999/xlink" x="0px" y="0px"
	 width="100%" viewBox="0 0 815 773" enable-background="new 0 0 815 773" xml:space="preserve">
<path fill="#000000" opacity="1.000000" stroke="none" 
	d="
M1.000000,261.000000 
	C1.000000,174.000000 1.000000,87.500000 1.000000,1.000000 
	C272.666656,1.000000 544.333313,1.000000 816.000000,1.000000 
	C816.000000,258.666656 816.000000,516.333313 816.000000,774.000000 
	C544.333313,774.000000 272.666656,774.000000 1.000000,774.000000 
	C1.000000,603.166687 1.000000,432.333344 1.000000,261.000000 
M190.507568,485.004791 
	C180.918594,498.798401 171.342636,512.601074 161.737976,526.383728 
	C141.098312,556.001709 120.101906,585.378113 99.884529,615.281372 
	C76.109573,650.446533 51.355949,684.871521 23.942142,717.271851 
	C15.039497,727.793884 19.413099,742.114258 31.911049,745.928467 
	C43.619328,749.501648 55.454136,751.730835 67.692436,752.027954 
	C78.502693,752.290283 89.304886,753.005432 100.115021,753.125488 
	C117.899063,753.322937 135.686661,753.215149 153.472748,753.207397 
	C161.250412,753.203979 169.067154,752.619934 176.796127,753.212524 
	C187.207352,754.010864 197.585800,756.957947 207.914764,756.673645 
	C220.961929,756.314636 233.938385,753.574280 246.963699,752.014404 
	C248.750290,751.800415 251.681000,751.832336 252.301239,752.843140 
	C254.638641,756.652588 258.000519,756.978516 261.788788,757.006897 
	C303.594299,757.319885 345.400055,757.618225 387.204315,758.056885 
	C392.672882,758.114258 398.157257,758.747253 403.593445,759.436096 
	C424.117706,762.037048 444.604034,764.164001 465.089111,758.987549 
	C468.268250,758.184265 471.680389,758.058716 474.986725,758.043396 
	C493.484985,757.957764 511.987152,757.793457 530.481262,758.083496 
	C540.939453,758.247559 551.552490,758.289673 561.787964,760.113831 
	C571.734558,761.886536 578.098206,753.817871 586.881104,753.130493 
	C587.717041,753.065063 588.544678,751.586060 589.192200,750.637756 
	C592.843872,745.290283 595.951660,739.481628 600.162659,734.626160 
	C607.350891,726.337830 615.413330,718.812988 622.732239,710.630859 
	C627.453369,705.352783 632.833435,700.029175 635.472107,693.705322 
	C638.013062,687.615479 641.201538,682.346069 644.876892,677.012207 
	C651.374695,667.582275 656.811401,657.413452 663.422546,648.070618 
	C687.149170,614.540039 711.346863,581.342163 735.010498,547.767578 
	C743.526428,535.684937 750.766785,522.710449 759.066467,510.466339 
	C771.948914,491.461365 785.312256,472.782898 798.290344,453.841675 
	C800.600037,450.470795 803.188965,446.624634 803.615601,442.772675 
	C804.435364,435.371735 804.306946,427.765808 803.666504,420.322784 
	C802.071899,401.790863 799.614746,383.330383 798.162170,364.789642 
	C796.435730,342.753296 794.677246,320.676971 794.251587,298.592499 
	C793.770569,273.635498 794.498718,248.643280 795.178833,223.679382 
	C795.776489,201.743607 797.444824,179.834152 797.889465,157.897842 
	C798.375732,133.909424 798.067444,109.903236 797.958557,85.905457 
	C797.926147,78.760559 797.192749,71.618736 797.164429,64.473984 
	C797.141785,58.762474 794.945129,52.312820 801.637085,48.247131 
	C802.074036,47.981640 801.501160,44.316357 800.613647,43.898479 
	C795.882324,41.670712 791.039246,39.257809 785.970337,38.278950 
	C779.982483,37.122646 773.706970,37.548058 767.588257,36.955673 
	C759.010010,36.125175 750.310791,35.678955 741.928894,33.850601 
	C718.500854,28.740208 695.060913,24.030214 671.009521,23.043192 
	C658.551758,22.531950 646.100769,21.772293 633.663086,20.893999 
	C629.101562,20.571884 624.445435,20.391590 621.351562,15.688478 
	C620.330017,14.135714 617.315491,13.285226 615.160278,13.180335 
	C590.912537,12.000227 566.662048,10.556385 542.396667,10.168838 
	C526.629944,9.917025 510.785858,10.703616 495.070770,12.092461 
	C479.292908,13.486854 463.615448,14.966043 447.788879,13.091769 
	C443.459747,12.579088 439.228668,12.830501 435.977814,16.822554 
	C434.908325,18.135881 432.437683,18.509098 430.523621,18.897474 
	C423.840546,20.253508 416.968994,20.899837 410.444061,22.773508 
	C392.759460,27.851723 374.590088,29.796143 356.439087,31.952770 
	C337.454407,34.208454 318.491119,36.713207 299.460907,38.493473 
	C285.258942,39.822056 270.966125,40.681671 256.712158,40.703560 
	C251.085663,40.712204 244.162567,41.901733 240.030472,35.281441 
	C239.549866,34.511425 234.989197,34.833179 234.127335,35.992416 
	C228.595535,43.432964 224.477631,51.521702 225.152237,61.290504 
	C226.182526,76.209686 227.091171,91.137527 227.994278,106.065147 
	C228.767349,118.843651 229.432068,131.628693 230.194702,144.407837 
	C231.442154,165.310989 232.783463,186.208710 233.964233,207.115555 
	C234.264572,212.433167 233.817825,217.798370 234.215546,223.104141 
	C235.681274,242.657486 237.722549,262.173950 238.852005,281.744446 
	C239.992218,301.501373 240.383240,321.303711 240.958588,341.090332 
	C241.422943,357.059937 241.666183,373.035980 242.029800,389.008636 
	C242.063812,390.502777 242.489304,392.017914 242.333496,393.480743 
	C241.903320,397.519592 242.111786,401.913086 240.528259,405.483582 
	C237.096054,413.222321 233.205124,420.859772 228.608170,427.960083 
	C216.311844,446.952484 203.544281,465.639801 190.507568,485.004791 
z"/>
<path fill="#272727" opacity="1.000000" stroke="none" 
	d="
M190.735764,484.726562 
	C203.544281,465.639801 216.311844,446.952484 228.608170,427.960083 
	C233.205124,420.859772 237.096054,413.222321 240.528259,405.483582 
	C242.111786,401.913086 241.903320,397.519592 242.333496,393.480743 
	C242.489304,392.017914 242.063812,390.502777 242.029800,389.008636 
	C241.666183,373.035980 241.422943,357.059937 240.958588,341.090332 
	C240.383240,321.303711 239.992218,301.501373 238.852005,281.744446 
	C237.722549,262.173950 235.681274,242.657486 234.215546,223.104141 
	C233.817825,217.798370 234.264572,212.433167 233.964233,207.115555 
	C232.783463,186.208710 231.442154,165.310989 230.194702,144.407837 
	C229.432068,131.628693 228.767349,118.843651 227.994278,106.065147 
	C227.091171,91.137527 226.182526,76.209686 225.152237,61.290504 
	C224.477631,51.521702 228.595535,43.432964 234.127335,35.992416 
	C234.989197,34.833179 239.549866,34.511425 240.030472,35.281441 
	C244.162567,41.901733 251.085663,40.712204 256.712158,40.703560 
	C270.966125,40.681671 285.258942,39.822056 299.460907,38.493473 
	C318.491119,36.713207 337.454407,34.208454 356.439087,31.952770 
	C374.590088,29.796143 392.759460,27.851723 410.444061,22.773508 
	C416.968994,20.899837 423.840546,20.253508 430.523621,18.897474 
	C432.437683,18.509098 434.908325,18.135881 435.977814,16.822554 
	C439.228668,12.830501 443.459747,12.579088 447.788879,13.091769 
	C463.615448,14.966043 479.292908,13.486854 495.070770,12.092461 
	C510.785858,10.703616 526.629944,9.917025 542.396667,10.168838 
	C566.662048,10.556385 590.912537,12.000227 615.160278,13.180335 
	C617.315491,13.285226 620.330017,14.135714 621.351562,15.688478 
	C624.445435,20.391590 629.101562,20.571884 633.663086,20.893999 
	C646.100769,21.772293 658.551758,22.531950 671.009521,23.043192 
	C695.060913,24.030214 718.500854,28.740208 741.928894,33.850601 
	C750.310791,35.678955 759.010010,36.125175 767.588257,36.955673 
	C773.706970,37.548058 779.982483,37.122646 785.970337,38.278950 
	C791.039246,39.257809 795.882324,41.670712 800.613647,43.898479 
	C801.501160,44.316357 802.074036,47.981640 801.637085,48.247131 
	C794.945129,52.312820 797.141785,58.762474 797.164429,64.473984 
	C797.192749,71.618736 797.926147,78.760559 797.958557,85.905457 
	C798.067444,109.903236 798.375732,133.909424 797.889465,157.897842 
	C797.444824,179.834152 795.776489,201.743607 795.178833,223.679382 
	C794.498718,248.643280 793.770569,273.635498 794.251587,298.592499 
	C794.677246,320.676971 796.435730,342.753296 798.162170,364.789642 
	C799.614746,383.330383 802.071899,401.790863 803.666504,420.322784 
	C804.306946,427.765808 804.435364,435.371735 803.615601,442.772675 
	C803.188965,446.624634 800.600037,450.470795 798.290344,453.841675 
	C785.312256,472.782898 771.948914,491.461365 759.066467,510.466339 
	C750.766785,522.710449 743.526428,535.684937 735.010498,547.767578 
	C711.346863,581.342163 687.149170,614.540039 663.422546,648.070618 
	C656.811401,657.413452 651.374695,667.582275 644.876892,677.012207 
	C641.201538,682.346069 638.013062,687.615479 635.472107,693.705322 
	C632.833435,700.029175 627.453369,705.352783 622.732239,710.630859 
	C615.413330,718.812988 607.350891,726.337830 600.162659,734.626160 
	C595.951660,739.481628 592.843872,745.290283 589.192200,750.637756 
	C588.544678,751.586060 587.717041,753.065063 586.881104,753.130493 
	C578.098206,753.817871 571.734558,761.886536 561.787964,760.113831 
	C551.552490,758.289673 540.939453,758.247559 530.481262,758.083496 
	C511.987152,757.793457 493.484985,757.957764 474.986725,758.043396 
	C471.680389,758.058716 468.268250,758.184265 465.089111,758.987549 
	C444.604034,764.164001 424.117706,762.037048 403.593445,759.436096 
	C398.157257,758.747253 392.672882,758.114258 387.204315,758.056885 
	C345.400055,757.618225 303.594299,757.319885 261.788788,757.006897 
	C258.000519,756.978516 254.638641,756.652588 252.301239,752.843140 
	C251.681000,751.832336 248.750290,751.800415 246.963699,752.014404 
	C233.938385,753.574280 220.961929,756.314636 207.914764,756.673645 
	C197.585800,756.957947 187.207352,754.010864 176.796127,753.212524 
	C169.067154,752.619934 161.250412,753.203979 153.472748,753.207397 
	C135.686661,753.215149 117.899063,753.322937 100.115021,753.125488 
	C89.304886,753.005432 78.502693,752.290283 67.692436,752.027954 
	C55.454136,751.730835 43.619328,749.501648 31.911049,745.928467 
	C19.413099,742.114258 15.039497,727.793884 23.942142,717.271851 
	C51.355949,684.871521 76.109573,650.446533 99.884529,615.281372 
	C120.101906,585.378113 141.098312,556.001709 161.737976,526.383728 
	C171.342636,512.601074 180.918594,498.798401 190.735764,484.726562 
M745.097473,57.288605 
	C734.348511,56.183929 723.593750,55.132828 712.851990,53.962269 
	C695.835388,52.107944 678.835754,50.095257 661.812622,48.304569 
	C652.575745,47.332928 643.407166,46.056900 634.040833,48.491508 
	C629.510620,49.669044 624.426819,49.033646 619.618896,48.766148 
	C605.185303,47.963112 590.775818,46.592339 576.334595,46.098202 
	C562.735046,45.632862 549.106995,46.013084 535.491516,45.987148 
	C533.329834,45.983032 531.169006,45.724972 529.007019,45.712040 
	C522.714172,45.674408 516.407654,45.955315 510.132111,45.624905 
	C504.894196,45.349129 499.689087,44.411442 494.475708,43.719994 
	C491.071045,43.268429 487.643585,42.147968 484.285126,42.342403 
	C473.175232,42.985588 462.091736,44.086491 450.998657,45.017807 
	C440.897980,45.865803 430.730682,46.249870 420.712677,47.678959 
	C403.439240,50.143055 386.289856,53.468552 369.028931,56.031723 
	C356.556091,57.883884 343.986023,59.079975 331.460754,60.580624 
	C310.837341,63.051514 290.221100,65.584381 269.587891,67.970192 
	C264.695526,68.535889 263.780548,69.621429 264.196320,74.681046 
	C265.216492,87.095428 266.459808,99.510468 266.887512,111.950203 
	C267.567993,131.742447 267.876709,151.554169 267.950928,171.359116 
	C268.093109,209.306290 267.701721,247.240097 270.788818,285.137665 
	C272.164459,302.025513 271.711273,319.066071 271.976257,336.039062 
	C272.114105,344.868927 271.956909,353.702972 272.029083,362.534363 
	C272.088623,369.815704 273.250458,371.061920 280.486145,370.962921 
	C296.460968,370.744446 312.433838,370.088959 328.406799,370.112061 
	C345.879639,370.137299 363.353882,370.645630 380.822510,371.125305 
	C385.292725,371.248047 389.739746,372.100983 394.204926,372.542542 
	C409.405060,374.045746 424.580322,376.132111 439.818451,376.829254 
	C456.115143,377.574799 472.476288,377.217316 488.801636,376.920227 
	C499.260742,376.729889 509.702454,375.706177 520.158508,375.189209 
	C528.457275,374.778931 536.845459,373.700165 545.054443,374.448273 
	C564.056702,376.180023 582.922913,379.986603 601.939026,380.837921 
	C626.831482,381.952301 651.815308,380.991730 676.759705,381.014709 
	C681.640259,381.019196 686.540588,381.817566 691.395081,381.559540 
	C696.170898,381.305695 700.892700,379.626984 704.328247,384.920502 
	C705.111328,386.127136 707.585327,386.360687 709.343323,386.782135 
	C712.253418,387.479614 715.192627,388.133636 718.157043,388.512939 
	C732.812317,390.388214 747.474060,392.215881 762.147217,393.944427 
	C765.595276,394.350586 767.994324,393.148254 767.964172,389.037598 
	C767.892090,379.207123 767.960815,369.375702 767.902405,359.545074 
	C767.895691,358.414520 767.445740,357.286163 767.198059,356.157471 
	C766.466797,352.825287 765.048706,349.480499 765.111511,346.163574 
	C765.552246,322.884216 766.377441,299.612488 766.922546,276.334625 
	C767.390198,256.364716 767.875671,236.390747 767.952576,216.417023 
	C768.110413,175.424072 768.129700,134.429352 767.902466,93.437050 
	C767.850098,83.987144 766.631836,74.539139 765.832947,65.100174 
	C765.508972,61.272285 763.485168,59.175468 759.365112,58.962177 
	C754.891541,58.730583 750.443420,58.006050 745.097473,57.288605 
M219.586945,490.943481 
	C217.519485,493.922089 216.070450,498.410553 213.255295,499.563568 
	C207.470047,501.933075 205.813217,506.768524 203.300034,511.352661 
	C201.223282,515.140747 199.434387,519.170776 196.838593,522.575623 
	C184.963440,538.152344 172.458755,553.198425 162.220230,570.042603 
	C152.827759,585.494751 141.775162,599.929688 132.088455,615.214905 
	C127.769844,622.029358 125.036400,629.843872 121.531456,637.179565 
	C115.239754,650.347839 106.499039,661.781189 97.190765,672.968323 
	C85.500244,687.018494 74.607170,701.733215 63.427551,716.205688 
	C62.401627,717.533813 61.792603,719.184021 60.959160,720.742249 
	C62.028240,721.301636 62.445187,721.689148 62.893337,721.729431 
	C74.687012,722.788879 86.921196,721.269592 97.781021,727.804016 
	C98.411385,728.183289 99.417458,727.964539 100.249458,727.978455 
	C120.887039,728.324097 141.524765,728.661316 162.162354,729.007629 
	C164.326721,729.043945 166.490036,729.139099 168.654282,729.186951 
	C179.293716,729.422424 189.947388,730.109863 200.569824,729.783813 
	C220.835312,729.161865 241.075226,727.665771 261.341553,727.132202 
	C270.611908,726.888245 279.924408,728.578918 289.209442,728.492737 
	C308.336517,728.315247 327.455505,727.385620 346.582855,727.073914 
	C354.049530,726.952271 361.534485,728.027161 369.002991,727.930603 
	C409.280273,727.409790 449.553375,726.386475 489.831299,726.168884 
	C510.608765,726.056641 531.392456,727.287842 552.175171,727.843201 
	C558.002380,727.998901 563.848694,728.155823 569.662781,727.856018 
	C574.202759,727.621826 579.300232,727.680298 579.588745,720.856873 
	C579.639465,719.658569 581.300720,718.513062 582.251892,717.371216 
	C584.680664,714.455688 587.422607,711.752502 589.519104,708.616638 
	C600.150330,692.715149 610.161926,676.380371 621.233521,660.796265 
	C644.736877,627.713623 668.835388,595.054382 692.541565,562.114868 
	C704.003540,546.188538 715.115662,530.010620 726.413879,513.966125 
	C735.973389,500.390747 745.676941,486.915466 755.123901,473.262512 
	C763.834717,460.673492 772.334106,447.936951 780.801697,435.182434 
	C781.912170,433.509705 782.280640,431.344330 782.992798,429.407135 
	C780.978455,428.939514 778.979187,428.149719 776.947449,428.054993 
	C760.010498,427.265106 743.038086,427.072388 726.574768,422.031372 
	C722.338623,420.734283 717.734741,420.232086 713.280823,420.120117 
	C688.639648,419.500916 664.192810,417.302002 639.866394,413.138824 
	C628.272278,411.154602 616.305847,411.377502 604.687988,409.491821 
	C590.901917,407.254181 577.677429,408.124115 564.233521,411.825195 
	C557.670654,413.631958 550.442139,413.664429 543.546387,413.456329 
	C534.806396,413.192596 526.111938,411.336945 517.373718,411.115204 
	C501.387482,410.709503 485.383514,411.027405 469.387177,410.970337 
	C466.737732,410.960876 464.089630,410.579315 461.440857,410.370483 
	C447.196625,409.247437 432.918243,406.897125 418.716187,407.291870 
	C397.829956,407.872437 377.029083,410.508240 356.035828,409.120239 
	C345.583832,408.429199 335.048340,409.011993 324.550659,408.997040 
	C310.413147,408.976898 296.295868,409.428528 282.289551,406.317627 
	C274.673798,404.626129 268.027008,407.455017 263.962463,414.467438 
	C259.377502,422.377838 255.138611,430.488770 250.744308,438.509796 
	C246.992874,445.357422 242.977127,452.076447 239.574738,459.093079 
	C237.504303,463.362854 235.894379,467.573486 230.922897,469.417542 
	C229.558838,469.923492 228.313507,471.556641 227.638214,472.970795 
	C224.918869,478.665375 222.444077,484.476776 219.586945,490.943481 
z"/>
<path fill="#000000" opacity="1.000000" stroke="none" 
	d="
M745.540833,57.392532 
	C750.443420,58.006050 754.891541,58.730583 759.365112,58.962177 
	C763.485168,59.175468 765.508972,61.272285 765.832947,65.100174 
	C766.631836,74.539139 767.850098,83.987144 767.902466,93.437050 
	C768.129700,134.429352 768.110413,175.424072 767.952576,216.417023 
	C767.875671,236.390747 767.390198,256.364716 766.922546,276.334625 
	C766.377441,299.612488 765.552246,322.884216 765.111511,346.163574 
	C765.048706,349.480499 766.466797,352.825287 767.198059,356.157471 
	C767.445740,357.286163 767.895691,358.414520 767.902405,359.545074 
	C767.960815,369.375702 767.892090,379.207123 767.964172,389.037598 
	C767.994324,393.148254 765.595276,394.350586 762.147217,393.944427 
	C747.474060,392.215881 732.812317,390.388214 718.157043,388.512939 
	C715.192627,388.133636 712.253418,387.479614 709.343323,386.782135 
	C707.585327,386.360687 705.111328,386.127136 704.328247,384.920502 
	C700.892700,379.626984 696.170898,381.305695 691.395081,381.559540 
	C686.540588,381.817566 681.640259,381.019196 676.759705,381.014709 
	C651.815308,380.991730 626.831482,381.952301 601.939026,380.837921 
	C582.922913,379.986603 564.056702,376.180023 545.054443,374.448273 
	C536.845459,373.700165 528.457275,374.778931 520.158508,375.189209 
	C509.702454,375.706177 499.260742,376.729889 488.801636,376.920227 
	C472.476288,377.217316 456.115143,377.574799 439.818451,376.829254 
	C424.580322,376.132111 409.405060,374.045746 394.204926,372.542542 
	C389.739746,372.100983 385.292725,371.248047 380.822510,371.125305 
	C363.353882,370.645630 345.879639,370.137299 328.406799,370.112061 
	C312.433838,370.088959 296.460968,370.744446 280.486145,370.962921 
	C273.250458,371.061920 272.088623,369.815704 272.029083,362.534363 
	C271.956909,353.702972 272.114105,344.868927 271.976257,336.039062 
	C271.711273,319.066071 272.164459,302.025513 270.788818,285.137665 
	C267.701721,247.240097 268.093109,209.306290 267.950928,171.359116 
	C267.876709,151.554169 267.567993,131.742447 266.887512,111.950203 
	C266.459808,99.510468 265.216492,87.095428 264.196320,74.681046 
	C263.780548,69.621429 264.695526,68.535889 269.587891,67.970192 
	C290.221100,65.584381 310.837341,63.051514 331.460754,60.580624 
	C343.986023,59.079975 356.556091,57.883884 369.028931,56.031723 
	C386.289856,53.468552 403.439240,50.143055 420.712677,47.678959 
	C430.730682,46.249870 440.897980,45.865803 450.998657,45.017807 
	C462.091736,44.086491 473.175232,42.985588 484.285126,42.342403 
	C487.643585,42.147968 491.071045,43.268429 494.475708,43.719994 
	C499.689087,44.411442 504.894196,45.349129 510.132111,45.624905 
	C516.407654,45.955315 522.714172,45.674408 529.007019,45.712040 
	C531.169006,45.724972 533.329834,45.983032 535.491516,45.987148 
	C549.106995,46.013084 562.735046,45.632862 576.334595,46.098202 
	C590.775818,46.592339 605.185303,47.963112 619.618896,48.766148 
	C624.426819,49.033646 629.510620,49.669044 634.040833,48.491508 
	C643.407166,46.056900 652.575745,47.332928 661.812622,48.304569 
	C678.835754,50.095257 695.835388,52.107944 712.851990,53.962269 
	C723.593750,55.132828 734.348511,56.183929 745.540833,57.392532 
M330.103912,278.695343 
	C329.487640,283.304047 328.851410,287.910217 328.259796,292.522095 
	C327.434143,298.958923 329.955841,301.953094 336.440613,301.971039 
	C355.432800,302.023621 374.427094,302.163666 393.417145,301.957825 
	C417.734161,301.694244 441.890930,302.355133 465.971680,306.759552 
	C480.616577,309.438080 495.781189,309.156342 510.541046,311.354492 
	C530.057434,314.260956 549.298096,312.356384 568.662720,310.401337 
	C586.168030,308.633911 603.710144,306.805023 621.276794,306.212036 
	C634.014954,305.782013 646.813965,307.496399 659.596680,307.938721 
	C670.651855,308.321259 673.754761,305.316437 675.029358,294.440521 
	C676.130310,285.046112 677.613464,275.695312 678.645203,266.294250 
	C680.547668,248.960556 682.326172,231.612106 683.994629,214.254272 
	C685.058716,203.183594 685.780884,192.080505 686.748230,180.999969 
	C688.004639,166.608475 689.475708,152.234390 690.576355,137.831573 
	C690.860229,134.117355 688.750305,131.468597 684.703064,131.090363 
	C666.361450,129.376221 648.045105,127.201920 629.665039,126.141785 
	C611.939148,125.119400 594.147583,125.175354 576.382568,124.909065 
	C553.086975,124.559868 529.775940,123.756432 506.496155,124.268784 
	C484.425629,124.754517 462.400757,127.073097 440.329926,127.857758 
	C423.025574,128.472961 405.681763,127.975510 388.355469,127.974731 
	C375.416107,127.974152 362.475647,128.074585 349.537872,127.931747 
	C344.241180,127.873268 342.448151,130.986237 342.140900,135.407883 
	C341.323212,147.174438 340.752747,158.957947 339.982483,170.728073 
	C339.299103,181.170761 338.536804,191.609085 337.706146,202.041122 
	C336.520172,216.935532 335.380890,231.835953 333.952026,246.707916 
	C332.952698,257.108612 331.502625,267.465973 330.103912,278.695343 
z"/>
<path fill="#000000" opacity="1.000000" stroke="none" 
	d="
M219.732941,490.594238 
	C222.444077,484.476776 224.918869,478.665375 227.638214,472.970795 
	C228.313507,471.556641 229.558838,469.923492 230.922897,469.417542 
	C235.894379,467.573486 237.504303,463.362854 239.574738,459.093079 
	C242.977127,452.076447 246.992874,445.357422 250.744308,438.509796 
	C255.138611,430.488770 259.377502,422.377838 263.962463,414.467438 
	C268.027008,407.455017 274.673798,404.626129 282.289551,406.317627 
	C296.295868,409.428528 310.413147,408.976898 324.550659,408.997040 
	C335.048340,409.011993 345.583832,408.429199 356.035828,409.120239 
	C377.029083,410.508240 397.829956,407.872437 418.716187,407.291870 
	C432.918243,406.897125 447.196625,409.247437 461.440857,410.370483 
	C464.089630,410.579315 466.737732,410.960876 469.387177,410.970337 
	C485.383514,411.027405 501.387482,410.709503 517.373718,411.115204 
	C526.111938,411.336945 534.806396,413.192596 543.546387,413.456329 
	C550.442139,413.664429 557.670654,413.631958 564.233521,411.825195 
	C577.677429,408.124115 590.901917,407.254181 604.687988,409.491821 
	C616.305847,411.377502 628.272278,411.154602 639.866394,413.138824 
	C664.192810,417.302002 688.639648,419.500916 713.280823,420.120117 
	C717.734741,420.232086 722.338623,420.734283 726.574768,422.031372 
	C743.038086,427.072388 760.010498,427.265106 776.947449,428.054993 
	C778.979187,428.149719 780.978455,428.939514 782.992798,429.407135 
	C782.280640,431.344330 781.912170,433.509705 780.801697,435.182434 
	C772.334106,447.936951 763.834717,460.673492 755.123901,473.262512 
	C745.676941,486.915466 735.973389,500.390747 726.413879,513.966125 
	C715.115662,530.010620 704.003540,546.188538 692.541565,562.114868 
	C668.835388,595.054382 644.736877,627.713623 621.233521,660.796265 
	C610.161926,676.380371 600.150330,692.715149 589.519104,708.616638 
	C587.422607,711.752502 584.680664,714.455688 582.251892,717.371216 
	C581.300720,718.513062 579.639465,719.658569 579.588745,720.856873 
	C579.300232,727.680298 574.202759,727.621826 569.662781,727.856018 
	C563.848694,728.155823 558.002380,727.998901 552.175171,727.843201 
	C531.392456,727.287842 510.608765,726.056641 489.831299,726.168884 
	C449.553375,726.386475 409.280273,727.409790 369.002991,727.930603 
	C361.534485,728.027161 354.049530,726.952271 346.582855,727.073914 
	C327.455505,727.385620 308.336517,728.315247 289.209442,728.492737 
	C279.924408,728.578918 270.611908,726.888245 261.341553,727.132202 
	C241.075226,727.665771 220.835312,729.161865 200.569824,729.783813 
	C189.947388,730.109863 179.293716,729.422424 168.654282,729.186951 
	C166.490036,729.139099 164.326721,729.043945 162.162354,729.007629 
	C141.524765,728.661316 120.887039,728.324097 100.249458,727.978455 
	C99.417458,727.964539 98.411385,728.183289 97.781021,727.804016 
	C86.921196,721.269592 74.687012,722.788879 62.893337,721.729431 
	C62.445187,721.689148 62.028240,721.301636 60.959160,720.742249 
	C61.792603,719.184021 62.401627,717.533813 63.427551,716.205688 
	C74.607170,701.733215 85.500244,687.018494 97.190765,672.968323 
	C106.499039,661.781189 115.239754,650.347839 121.531456,637.179565 
	C125.036400,629.843872 127.769844,622.029358 132.088455,615.214905 
	C141.775162,599.929688 152.827759,585.494751 162.220230,570.042603 
	C172.458755,553.198425 184.963440,538.152344 196.838593,522.575623 
	C199.434387,519.170776 201.223282,515.140747 203.300034,511.352661 
	C205.813217,506.768524 207.470047,501.933075 213.255295,499.563568 
	C216.070450,498.410553 217.519485,493.922089 219.732941,490.594238 
M425.279846,606.126221 
	C435.355042,607.068481 445.412445,608.331604 455.508850,608.891174 
	C482.882446,610.408142 510.287903,611.375732 537.651367,613.042908 
	C559.529358,614.375854 581.393738,616.126709 603.197327,618.347961 
	C608.562256,618.894531 611.898621,617.284119 614.764709,613.541626 
	C619.818665,606.942261 624.878235,600.332581 629.596191,593.493286 
	C641.195312,576.678955 651.697449,559.016602 664.334961,543.035034 
	C677.492554,526.395630 688.092651,508.211182 699.799744,490.695923 
	C703.031616,485.860748 702.515930,483.706573 697.383179,481.285065 
	C694.270020,479.816345 690.898987,478.638672 687.518433,478.046692 
	C680.983704,476.902435 674.263306,476.714844 667.794189,475.321503 
	C655.340027,472.639099 642.975525,469.516510 630.631958,466.350250 
	C615.028015,462.347717 599.510681,458.007233 583.904846,454.012390 
	C554.113586,446.386169 523.710632,443.740692 493.066620,442.965912 
	C475.287689,442.516418 457.513611,441.792847 439.745911,441.000488 
	C413.205505,439.816864 386.860291,437.406921 361.108643,430.130798 
	C344.553772,425.453247 327.385834,426.375153 310.496979,427.433533 
	C299.647980,428.113373 288.927002,431.035553 278.186127,433.143555 
	C273.808167,434.002777 271.079681,436.838654 269.301300,441.060272 
	C267.640503,445.002625 265.528198,448.877808 262.962402,452.292480 
	C255.784119,461.845856 248.265274,471.143188 240.886475,480.546021 
	C217.760895,510.015045 196.328430,540.606384 178.780182,573.796692 
	C175.539398,579.926208 176.687302,583.454712 183.472427,584.530273 
	C194.614304,586.296509 205.806519,588.300964 217.041367,588.818604 
	C248.430969,590.264587 279.859314,590.850037 311.259003,592.108826 
	C320.527588,592.480408 329.801727,593.631165 338.983124,595.020813 
	C349.820923,596.661194 360.493439,599.499023 371.358612,600.829285 
	C388.987396,602.987610 406.714630,604.341553 425.279846,606.126221 
M329.407227,600.001038 
	C309.276154,599.670654 289.144531,599.370117 269.014404,598.989685 
	C263.737915,598.889954 259.588501,600.615173 257.032257,605.451904 
	C249.595398,619.523376 241.835907,633.437256 234.863586,647.735046 
	C232.152420,653.294678 229.661652,659.746704 229.779694,665.738953 
	C230.031601,678.528870 238.408951,687.066772 251.034943,689.760986 
	C253.467819,690.280090 255.957031,690.933716 258.409973,690.893799 
	C271.496704,690.680664 283.741730,693.634949 296.406616,697.214417 
	C312.172821,701.670410 329.107697,702.089844 345.575623,703.911499 
	C351.341095,704.549255 357.241180,703.879150 363.040009,704.324341 
	C376.686859,705.372070 389.886383,705.663391 403.148865,700.089661 
	C418.963959,693.443176 430.333832,683.805969 434.276825,666.614502 
	C437.060852,654.476318 440.233063,642.421814 442.757355,630.231567 
	C444.168274,623.417969 441.449982,619.053711 435.053528,616.294312 
	C432.632111,615.249756 430.023224,614.456360 427.421295,614.045593 
	C416.763885,612.363159 405.961700,611.416260 395.423645,609.197327 
	C373.927063,604.671021 352.343414,601.057739 329.407227,600.001038 
z"/>
<path fill="#2C2C2C" opacity="1.000000" stroke="none" 
	d="
M330.178864,278.269043 
	C331.502625,267.465973 332.952698,257.108612 333.952026,246.707916 
	C335.380890,231.835953 336.520172,216.935532 337.706146,202.041122 
	C338.536804,191.609085 339.299103,181.170761 339.982483,170.728073 
	C340.752747,158.957947 341.323212,147.174438 342.140900,135.407883 
	C342.448151,130.986237 344.241180,127.873268 349.537872,127.931747 
	C362.475647,128.074585 375.416107,127.974152 388.355469,127.974731 
	C405.681763,127.975510 423.025574,128.472961 440.329926,127.857758 
	C462.400757,127.073097 484.425629,124.754517 506.496155,124.268784 
	C529.775940,123.756432 553.086975,124.559868 576.382568,124.909065 
	C594.147583,125.175354 611.939148,125.119400 629.665039,126.141785 
	C648.045105,127.201920 666.361450,129.376221 684.703064,131.090363 
	C688.750305,131.468597 690.860229,134.117355 690.576355,137.831573 
	C689.475708,152.234390 688.004639,166.608475 686.748230,180.999969 
	C685.780884,192.080505 685.058716,203.183594 683.994629,214.254272 
	C682.326172,231.612106 680.547668,248.960556 678.645203,266.294250 
	C677.613464,275.695312 676.130310,285.046112 675.029358,294.440521 
	C673.754761,305.316437 670.651855,308.321259 659.596680,307.938721 
	C646.813965,307.496399 634.014954,305.782013 621.276794,306.212036 
	C603.710144,306.805023 586.168030,308.633911 568.662720,310.401337 
	C549.298096,312.356384 530.057434,314.260956 510.541046,311.354492 
	C495.781189,309.156342 480.616577,309.438080 465.971680,306.759552 
	C441.890930,302.355133 417.734161,301.694244 393.417145,301.957825 
	C374.427094,302.163666 355.432800,302.023621 336.440613,301.971039 
	C329.955841,301.953094 327.434143,298.958923 328.259796,292.522095 
	C328.851410,287.910217 329.487640,283.304047 330.178864,278.269043 
M513.414368,216.854965 
	C505.863220,220.911133 497.307617,223.059464 491.197815,229.861023 
	C488.591187,232.762772 484.739197,231.884293 481.774963,229.195206 
	C479.803833,227.407059 478.091492,225.274078 475.938782,223.755524 
	C463.596497,215.049088 451.288483,206.283173 438.723083,197.906036 
	C412.737701,180.582001 386.600372,163.485886 360.513885,146.313705 
	C359.183014,145.437622 357.742920,144.727371 355.702271,143.570694 
	C355.044373,146.076401 354.270874,147.910995 354.111572,149.797455 
	C352.043793,174.283066 350.186005,198.786896 348.022400,223.263794 
	C346.239136,243.437241 344.189117,263.588104 342.116180,283.734497 
	C341.243317,292.217712 341.748413,292.913086 350.214203,293.008881 
	C377.007751,293.312103 403.834930,292.952911 430.582001,294.241791 
	C448.447205,295.102600 466.196411,298.348511 484.000885,300.499359 
	C496.504822,302.009888 509.017059,304.696411 521.520813,304.668823 
	C539.743347,304.628632 557.969727,302.733093 576.179016,301.414551 
	C589.418579,300.455872 602.622009,298.395844 615.861694,298.202332 
	C630.622559,297.986633 645.412415,299.217712 660.176453,300.051178 
	C665.252441,300.337708 667.400940,298.159210 668.054199,293.352325 
	C670.935059,272.153839 674.432190,251.027847 676.812256,229.775482 
	C679.657104,204.373901 681.599976,178.871094 683.909668,153.409973 
	C684.210876,150.089325 684.370422,146.755829 684.686707,142.081421 
	C680.924927,144.202789 678.258545,145.463150 675.859436,147.112305 
	C671.479248,150.123169 667.388794,153.564774 662.947388,156.475647 
	C640.330383,171.298615 617.003662,184.469955 589.931152,189.689270 
	C582.891663,191.046417 576.265930,194.461945 569.370422,196.684647 
	C564.631897,198.212067 559.616455,198.939148 554.967346,200.673874 
	C541.279175,205.781326 527.711792,211.212616 513.414368,216.854965 
M405.500610,135.999786 
	C390.547089,135.432220 375.593536,134.864655 359.242523,134.244049 
	C361.095612,135.976074 361.715149,136.710037 362.475830,137.242310 
	C370.921539,143.152252 379.226349,149.283203 387.883057,154.867966 
	C408.837341,168.386383 430.038971,181.521667 450.978271,195.062897 
	C461.445557,201.831985 471.525452,209.197891 481.848419,216.193741 
	C484.736664,218.151108 487.483856,219.681168 491.445862,217.470947 
	C498.526703,213.520889 505.860657,209.887146 513.408325,206.939438 
	C530.125366,200.410751 546.931641,194.071182 563.908569,188.259399 
	C578.048279,183.418915 592.624268,179.849792 606.751831,174.977646 
	C624.629456,168.812195 640.638489,158.857651 656.430420,148.639130 
	C662.047729,145.004364 667.444214,141.028305 672.941528,137.208038 
	C672.807922,136.684235 672.674377,136.160416 672.540833,135.636597 
	C668.356934,135.255997 664.179321,134.655243 659.988098,134.536179 
	C647.561890,134.183167 635.129456,133.801788 622.700989,133.848251 
	C611.737976,133.889221 600.574585,135.982361 589.858032,134.528275 
	C568.769714,131.666885 547.819580,131.774734 526.682556,132.826691 
	C497.634094,134.272324 468.551880,135.080200 439.477692,135.945847 
	C428.494446,136.272842 417.493286,135.999435 405.500610,135.999786 
z"/>
<path fill="#2D2D2D" opacity="1.000000" stroke="none" 
	d="
M424.840088,606.080627 
	C406.714630,604.341553 388.987396,602.987610 371.358612,600.829285 
	C360.493439,599.499023 349.820923,596.661194 338.983124,595.020813 
	C329.801727,593.631165 320.527588,592.480408 311.259003,592.108826 
	C279.859314,590.850037 248.430969,590.264587 217.041367,588.818604 
	C205.806519,588.300964 194.614304,586.296509 183.472427,584.530273 
	C176.687302,583.454712 175.539398,579.926208 178.780182,573.796692 
	C196.328430,540.606384 217.760895,510.015045 240.886475,480.546021 
	C248.265274,471.143188 255.784119,461.845856 262.962402,452.292480 
	C265.528198,448.877808 267.640503,445.002625 269.301300,441.060272 
	C271.079681,436.838654 273.808167,434.002777 278.186127,433.143555 
	C288.927002,431.035553 299.647980,428.113373 310.496979,427.433533 
	C327.385834,426.375153 344.553772,425.453247 361.108643,430.130798 
	C386.860291,437.406921 413.205505,439.816864 439.745911,441.000488 
	C457.513611,441.792847 475.287689,442.516418 493.066620,442.965912 
	C523.710632,443.740692 554.113586,446.386169 583.904846,454.012390 
	C599.510681,458.007233 615.028015,462.347717 630.631958,466.350250 
	C642.975525,469.516510 655.340027,472.639099 667.794189,475.321503 
	C674.263306,476.714844 680.983704,476.902435 687.518433,478.046692 
	C690.898987,478.638672 694.270020,479.816345 697.383179,481.285065 
	C702.515930,483.706573 703.031616,485.860748 699.799744,490.695923 
	C688.092651,508.211182 677.492554,526.395630 664.334961,543.035034 
	C651.697449,559.016602 641.195312,576.678955 629.596191,593.493286 
	C624.878235,600.332581 619.818665,606.942261 614.764709,613.541626 
	C611.898621,617.284119 608.562256,618.894531 603.197327,618.347961 
	C581.393738,616.126709 559.529358,614.375854 537.651367,613.042908 
	C510.287903,611.375732 482.882446,610.408142 455.508850,608.891174 
	C445.412445,608.331604 435.355042,607.068481 424.840088,606.080627 
M664.037720,533.568298 
	C667.441956,529.506226 671.367798,525.769470 674.145325,521.316406 
	C680.563782,511.025818 686.425354,500.387909 692.513428,489.891266 
	C694.723877,486.080261 694.045532,484.393524 689.631592,484.150238 
	C675.515137,483.372192 661.715454,481.530182 648.065613,477.273315 
	C630.631042,471.836121 612.424500,468.784943 595.160767,462.912109 
	C573.624023,455.585632 551.535706,452.521332 529.131836,451.172394 
	C511.867859,450.132904 494.527588,450.383911 477.222961,449.986725 
	C464.917572,449.704315 452.610382,449.410553 440.313263,448.898773 
	C434.348389,448.650543 428.391602,448.006927 422.454620,447.335114 
	C413.242798,446.292725 404.067871,444.907104 394.846405,443.971710 
	C383.773956,442.848572 372.839752,441.838623 362.265869,437.508453 
	C356.289429,435.061035 349.322784,434.329956 342.767334,434.158722 
	C332.337952,433.886261 321.848145,434.351685 311.443573,435.220184 
	C303.535736,435.880249 295.613281,437.222382 287.918732,439.146362 
	C284.959961,439.886169 282.062286,442.653137 280.086121,445.225769 
	C272.218201,455.468262 264.669373,465.958466 257.108429,476.433472 
	C250.070389,486.184021 243.167038,496.031738 236.204407,505.836700 
	C236.655945,506.268341 237.107468,506.699951 237.559006,507.131592 
	C239.451523,505.949493 241.337891,504.757416 243.237732,503.587189 
	C248.131744,500.572632 253.171432,498.253937 259.210022,499.045380 
	C264.457977,499.733246 270.749786,504.655090 271.736725,509.217499 
	C272.729919,513.809021 269.736206,519.534119 263.984772,521.828674 
	C258.355286,524.074585 252.384415,525.998108 246.403015,526.703918 
	C237.344131,527.772827 233.186310,524.020203 231.600418,515.160767 
	C231.558533,514.926819 231.122314,514.763428 230.881119,514.575806 
	C230.697510,514.611877 230.471512,514.585693 230.381424,514.684021 
	C214.718460,531.777405 203.665100,551.832092 193.337570,572.354675 
	C191.449432,576.106689 193.164902,577.660522 196.764420,577.926819 
	C211.006485,578.980286 225.244873,580.108459 239.499649,580.956360 
	C249.624329,581.558655 259.781921,581.598938 269.909271,582.167114 
	C290.973816,583.348816 312.047119,584.471130 333.077362,586.120972 
	C341.801575,586.805420 350.427917,588.758789 359.092529,590.173035 
	C364.646576,591.079590 370.160431,592.309814 375.743561,592.942993 
	C385.311676,594.028015 394.924988,594.707703 404.510132,595.651001 
	C418.884766,597.065674 433.235046,598.758423 447.627319,599.951111 
	C456.899078,600.719482 466.235657,600.668091 475.528534,601.227539 
	C488.956207,602.035950 502.365112,603.154602 515.792542,603.967773 
	C524.421997,604.490417 533.084778,604.497192 541.706299,605.107544 
	C551.309631,605.787415 560.872559,607.025696 570.472412,607.772278 
	C581.736084,608.648071 593.014160,609.440735 604.301208,609.828064 
	C606.619446,609.907593 609.483337,608.562134 611.252441,606.948792 
	C614.288696,604.179932 616.893127,600.846130 619.273621,597.464294 
	C634.106262,576.392090 648.826416,555.240601 664.037720,533.568298 
M253.258209,516.974243 
	C256.160583,515.776489 259.763184,515.223633 261.692200,513.129395 
	C262.779327,511.949066 261.108490,508.228424 260.472656,504.404968 
	C253.890869,508.195190 248.617249,511.232086 243.343628,514.268982 
	C243.513046,514.878601 243.682480,515.488220 243.851913,516.097839 
	C246.699005,516.394958 249.546097,516.692078 253.258209,516.974243 
z"/>
<path fill="#2D2D2D" opacity="1.000000" stroke="none" 
	d="
M329.891388,600.001892 
	C352.343414,601.057739 373.927063,604.671021 395.423645,609.197327 
	C405.961700,611.416260 416.763885,612.363159 427.421295,614.045593 
	C430.023224,614.456360 432.632111,615.249756 435.053528,616.294312 
	C441.449982,619.053711 444.168274,623.417969 442.757355,630.231567 
	C440.233063,642.421814 437.060852,654.476318 434.276825,666.614502 
	C430.333832,683.805969 418.963959,693.443176 403.148865,700.089661 
	C389.886383,705.663391 376.686859,705.372070 363.040009,704.324341 
	C357.241180,703.879150 351.341095,704.549255 345.575623,703.911499 
	C329.107697,702.089844 312.172821,701.670410 296.406616,697.214417 
	C283.741730,693.634949 271.496704,690.680664 258.409973,690.893799 
	C255.957031,690.933716 253.467819,690.280090 251.034943,689.760986 
	C238.408951,687.066772 230.031601,678.528870 229.779694,665.738953 
	C229.661652,659.746704 232.152420,653.294678 234.863586,647.735046 
	C241.835907,633.437256 249.595398,619.523376 257.032257,605.451904 
	C259.588501,600.615173 263.737915,598.889954 269.014404,598.989685 
	C289.144531,599.370117 309.276154,599.670654 329.891388,600.001892 
M346.590698,695.998108 
	C351.244690,696.127502 355.985962,695.728943 360.537079,696.480957 
	C377.217133,699.237122 393.023163,698.533142 408.276184,689.655518 
	C416.409790,684.921631 421.905182,679.015259 425.436279,670.546021 
	C430.459625,658.497437 433.269531,645.919983 435.479095,633.136230 
	C436.878662,625.038879 433.081604,620.489441 424.926514,619.931763 
	C415.337860,619.276062 405.624634,618.821350 396.258667,616.871216 
	C377.414246,612.947571 358.938965,607.646729 339.347473,607.729370 
	C317.254791,607.822632 295.156586,606.657593 273.061279,606.022705 
	C268.703827,605.897400 265.839050,607.937317 264.068817,611.836792 
	C261.801971,616.830322 259.343018,621.737976 257.135254,626.756714 
	C252.449036,637.409546 247.775925,648.070190 243.288559,658.807495 
	C240.872787,664.587952 241.995911,669.610596 246.594467,674.252747 
	C251.454620,679.158997 257.343506,680.856750 263.763458,680.906738 
	C273.541016,680.982910 283.081543,682.384705 291.998993,686.239563 
	C309.171295,693.662903 327.352264,694.938293 346.590698,695.998108 
z"/>
<path fill="#000000" opacity="1.000000" stroke="none" 
	d="
M513.755737,216.686035 
	C527.711792,211.212616 541.279175,205.781326 554.967346,200.673874 
	C559.616455,198.939148 564.631897,198.212067 569.370422,196.684647 
	C576.265930,194.461945 582.891663,191.046417 589.931152,189.689270 
	C617.003662,184.469955 640.330383,171.298615 662.947388,156.475647 
	C667.388794,153.564774 671.479248,150.123169 675.859436,147.112305 
	C678.258545,145.463150 680.924927,144.202789 684.686707,142.081421 
	C684.370422,146.755829 684.210876,150.089325 683.909668,153.409973 
	C681.599976,178.871094 679.657104,204.373901 676.812256,229.775482 
	C674.432190,251.027847 670.935059,272.153839 668.054199,293.352325 
	C667.400940,298.159210 665.252441,300.337708 660.176453,300.051178 
	C645.412415,299.217712 630.622559,297.986633 615.861694,298.202332 
	C602.622009,298.395844 589.418579,300.455872 576.179016,301.414551 
	C557.969727,302.733093 539.743347,304.628632 521.520813,304.668823 
	C509.017059,304.696411 496.504822,302.009888 484.000885,300.499359 
	C466.196411,298.348511 448.447205,295.102600 430.582001,294.241791 
	C403.834930,292.952911 377.007751,293.312103 350.214203,293.008881 
	C341.748413,292.913086 341.243317,292.217712 342.116180,283.734497 
	C344.189117,263.588104 346.239136,243.437241 348.022400,223.263794 
	C350.186005,198.786896 352.043793,174.283066 354.111572,149.797455 
	C354.270874,147.910995 355.044373,146.076401 355.702271,143.570694 
	C357.742920,144.727371 359.183014,145.437622 360.513885,146.313705 
	C386.600372,163.485886 412.737701,180.582001 438.723083,197.906036 
	C451.288483,206.283173 463.596497,215.049088 475.938782,223.755524 
	C478.091492,225.274078 479.803833,227.407059 481.774963,229.195206 
	C484.739197,231.884293 488.591187,232.762772 491.197815,229.861023 
	C497.307617,223.059464 505.863220,220.911133 513.755737,216.686035 
z"/>
<path fill="#000000" opacity="1.000000" stroke="none" 
	d="
M406.000458,135.999756 
	C417.493286,135.999435 428.494446,136.272842 439.477692,135.945847 
	C468.551880,135.080200 497.634094,134.272324 526.682556,132.826691 
	C547.819580,131.774734 568.769714,131.666885 589.858032,134.528275 
	C600.574585,135.982361 611.737976,133.889221 622.700989,133.848251 
	C635.129456,133.801788 647.561890,134.183167 659.988098,134.536179 
	C664.179321,134.655243 668.356934,135.255997 672.540833,135.636597 
	C672.674377,136.160416 672.807922,136.684235 672.941528,137.208038 
	C667.444214,141.028305 662.047729,145.004364 656.430420,148.639130 
	C640.638489,158.857651 624.629456,168.812195 606.751831,174.977646 
	C592.624268,179.849792 578.048279,183.418915 563.908569,188.259399 
	C546.931641,194.071182 530.125366,200.410751 513.408325,206.939438 
	C505.860657,209.887146 498.526703,213.520889 491.445862,217.470947 
	C487.483856,219.681168 484.736664,218.151108 481.848419,216.193741 
	C471.525452,209.197891 461.445557,201.831985 450.978271,195.062897 
	C430.038971,181.521667 408.837341,168.386383 387.883057,154.867966 
	C379.226349,149.283203 370.921539,143.152252 362.475830,137.242310 
	C361.715149,136.710037 361.095612,135.976074 359.242523,134.244049 
	C375.593536,134.864655 390.547089,135.432220 406.000458,135.999756 
z"/>
<path fill="#000000" opacity="1.000000" stroke="none" 
	d="
M663.810791,533.841858 
	C648.826416,555.240601 634.106262,576.392090 619.273621,597.464294 
	C616.893127,600.846130 614.288696,604.179932 611.252441,606.948792 
	C609.483337,608.562134 606.619446,609.907593 604.301208,609.828064 
	C593.014160,609.440735 581.736084,608.648071 570.472412,607.772278 
	C560.872559,607.025696 551.309631,605.787415 541.706299,605.107544 
	C533.084778,604.497192 524.421997,604.490417 515.792542,603.967773 
	C502.365112,603.154602 488.956207,602.035950 475.528534,601.227539 
	C466.235657,600.668091 456.899078,600.719482 447.627319,599.951111 
	C433.235046,598.758423 418.884766,597.065674 404.510132,595.651001 
	C394.924988,594.707703 385.311676,594.028015 375.743561,592.942993 
	C370.160431,592.309814 364.646576,591.079590 359.092529,590.173035 
	C350.427917,588.758789 341.801575,586.805420 333.077362,586.120972 
	C312.047119,584.471130 290.973816,583.348816 269.909271,582.167114 
	C259.781921,581.598938 249.624329,581.558655 239.499649,580.956360 
	C225.244873,580.108459 211.006485,578.980286 196.764420,577.926819 
	C193.164902,577.660522 191.449432,576.106689 193.337570,572.354675 
	C203.665100,551.832092 214.718460,531.777405 230.381424,514.684021 
	C230.471512,514.585693 230.697510,514.611877 230.881119,514.575806 
	C231.122314,514.763428 231.558533,514.926819 231.600418,515.160767 
	C233.186310,524.020203 237.344131,527.772827 246.403015,526.703918 
	C252.384415,525.998108 258.355286,524.074585 263.984772,521.828674 
	C269.736206,519.534119 272.729919,513.809021 271.736725,509.217499 
	C270.749786,504.655090 264.457977,499.733246 259.210022,499.045380 
	C253.171432,498.253937 248.131744,500.572632 243.237732,503.587189 
	C241.337891,504.757416 239.451523,505.949493 237.559006,507.131592 
	C237.107468,506.699951 236.655945,506.268341 236.204407,505.836700 
	C243.167038,496.031738 250.070389,486.184021 257.108429,476.433472 
	C264.669373,465.958466 272.218201,455.468262 280.086121,445.225769 
	C282.062286,442.653137 284.959961,439.886169 287.918732,439.146362 
	C295.613281,437.222382 303.535736,435.880249 311.443573,435.220184 
	C321.848145,434.351685 332.337952,433.886261 342.767334,434.158722 
	C349.322784,434.329956 356.289429,435.061035 362.265869,437.508453 
	C372.839752,441.838623 383.773956,442.848572 394.846405,443.971710 
	C404.067871,444.907104 413.242798,446.292725 422.454620,447.335114 
	C428.391602,448.006927 434.348389,448.650543 440.313263,448.898773 
	C452.610382,449.410553 464.917572,449.704315 477.222961,449.986725 
	C494.527588,450.383911 511.867859,450.132904 529.131836,451.172394 
	C551.535706,452.521332 573.624023,455.585632 595.160767,462.912109 
	C612.424500,468.784943 630.631042,471.836121 648.065613,477.273315 
	C661.715454,481.530182 675.515137,483.372192 689.631592,484.150238 
	C694.045532,484.393524 694.723877,486.080261 692.513428,489.891266 
	C686.425354,500.387909 680.563782,511.025818 674.145325,521.316406 
	C671.367798,525.769470 667.441956,529.506226 663.810791,533.841858 
M350.140320,581.241760 
	C356.318176,582.479858 362.450104,584.420166 368.682312,584.827698 
	C389.567444,586.193420 410.511078,586.696289 431.384308,588.197144 
	C439.551758,588.784363 447.569672,591.273865 455.698730,592.641052 
	C460.532806,593.453979 465.672363,594.936218 470.284180,594.060791 
	C479.487427,592.313965 481.942230,584.052246 484.280182,576.325378 
	C485.848816,571.141113 483.552521,568.670349 478.211945,569.209534 
	C474.750763,569.558960 471.253815,570.011963 467.797028,569.861938 
	C456.850189,569.386841 445.890961,567.863586 434.980133,568.192383 
	C416.981659,568.734619 399.692932,564.195740 382.078186,562.099915 
	C373.546356,561.084839 365.233337,558.341003 356.726196,556.969360 
	C351.060425,556.055786 345.170715,556.570984 339.482300,555.748047 
	C332.281830,554.706360 325.202301,552.856079 318.037537,551.533691 
	C307.413910,549.572754 298.845551,554.273743 295.395752,564.715515 
	C291.945618,575.158386 293.803497,578.097717 304.159790,578.216919 
	C319.225250,578.390259 334.273651,580.044617 350.140320,581.241760 
M550.494690,558.059265 
	C556.199768,554.252869 560.504517,549.284424 562.586609,542.690063 
	C565.041138,534.915894 561.564941,530.289734 553.291870,530.002991 
	C541.707397,529.601440 526.363281,545.302551 527.059143,556.843872 
	C527.284729,560.586792 529.288330,562.582703 532.994629,562.960449 
	C539.198608,563.592773 544.917480,562.419556 550.494690,558.059265 
M298.767273,473.447693 
	C303.099609,466.236755 308.358368,459.403320 311.494873,451.705170 
	C314.433472,444.492798 308.752502,438.833557 301.488586,440.443359 
	C291.233582,442.716125 284.226837,448.768311 280.992432,458.838257 
	C279.404053,463.783630 278.985199,468.731140 283.370392,472.695312 
	C287.658478,476.571716 291.979523,476.860687 298.767273,473.447693 
M552.816956,469.077667 
	C549.601074,474.291748 545.966370,479.305695 543.340759,484.801758 
	C541.966125,487.679443 541.273315,491.737762 542.175842,494.678864 
	C544.378479,501.856781 554.675598,504.284943 560.803894,499.680756 
	C567.160767,494.904938 569.628052,488.096313 569.855713,480.616150 
	C569.967529,476.944733 569.523987,472.025116 567.249023,469.796234 
	C563.690552,466.309845 558.283081,465.776611 552.816956,469.077667 
M394.041870,479.526215 
	C396.064941,474.865417 398.774689,470.371552 399.957062,465.506439 
	C401.941589,457.340637 396.157959,452.606323 387.955139,454.867981 
	C376.307739,458.079376 372.274719,467.312592 369.931274,477.695923 
	C368.656738,483.343048 372.101410,487.393372 377.820740,487.935516 
	C384.718994,488.589417 389.476196,485.000061 394.041870,479.526215 
M493.250977,556.219177 
	C501.413025,549.425964 510.294556,543.135254 509.005859,530.475098 
	C508.611877,526.604919 507.218597,522.873779 503.432892,522.675903 
	C498.722290,522.429565 493.909424,523.901428 489.173187,524.802063 
	C488.763580,524.879944 488.638702,526.251709 488.308502,526.989685 
	C487.417664,528.980591 486.606262,531.020203 485.545471,532.918762 
	C483.863373,535.929260 481.460297,538.645691 480.318695,541.829468 
	C476.430847,552.672607 481.003021,558.024902 493.250977,556.219177 
M524.855713,463.599731 
	C521.432861,460.931580 517.661194,460.326782 513.603943,461.823120 
	C504.414124,465.212341 497.802094,474.941284 498.029358,484.661072 
	C498.167908,490.586975 500.843292,493.308167 506.877075,493.946045 
	C514.592529,494.761597 520.682434,492.047943 524.620483,485.403503 
	C528.666138,478.577393 529.846313,471.422424 524.855713,463.599731 
M341.562561,449.813690 
	C335.141449,455.164978 330.945465,462.038300 328.248688,469.827240 
	C326.562531,474.697144 328.488800,478.144135 333.429962,479.934570 
	C344.908783,484.093842 360.001587,472.592804 359.826263,459.459137 
	C359.788635,456.642212 358.627502,452.970215 356.638367,451.231720 
	C352.584229,447.688416 347.442352,446.736298 341.562561,449.813690 
M461.933441,489.764404 
	C468.325256,493.030518 474.659943,492.613739 480.091614,488.154785 
	C486.103394,483.219635 488.716431,476.269012 487.687622,468.604858 
	C486.545532,460.096619 474.258820,455.244995 467.963531,461.037018 
	C463.853912,464.818146 460.609161,469.895142 458.086304,474.945770 
	C455.525208,480.072998 456.789764,485.308319 461.933441,489.764404 
M429.751831,484.469147 
	C435.312836,480.132507 438.847321,474.528137 440.577057,467.682281 
	C441.650940,463.432068 440.073517,460.210175 436.448883,458.600006 
	C431.143097,456.242950 425.627380,455.903198 420.286255,459.147522 
	C412.021454,464.167816 410.641815,474.539459 412.714050,481.500580 
	C413.376251,483.725220 416.717896,486.231049 419.132233,486.588043 
	C422.302094,487.056702 425.767426,485.526794 429.751831,484.469147 
M596.826721,472.042664 
	C590.129089,477.443848 587.637634,484.812347 587.059570,493.048553 
	C586.753723,497.406097 588.117004,501.005463 592.373657,502.815155 
	C596.870483,504.726990 601.542480,504.794159 604.628662,500.633667 
	C607.715698,496.472046 610.787537,491.906616 612.271545,487.032745 
	C615.088562,477.780426 607.250366,470.052673 596.826721,472.042664 
M595.148987,539.682495 
	C592.436890,543.829102 589.314758,547.769958 587.107361,552.169800 
	C583.655579,559.049622 585.972656,563.309692 593.380981,564.513489 
	C595.099243,564.792664 597.037170,564.653015 598.706482,564.149902 
	C610.162415,560.697632 616.694336,548.330200 613.533997,536.327393 
	C612.097290,530.870728 606.822388,529.174866 601.968079,532.859497 
	C599.611145,534.648560 597.682678,537.002197 595.148987,539.682495 
M431.449799,542.089722 
	C438.171112,540.754883 443.479401,537.403687 446.767670,531.242432 
	C449.512238,526.099792 448.089172,519.430908 443.793396,517.043152 
	C433.415131,511.274323 423.714355,513.800293 417.699646,524.066589 
	C415.106903,528.492126 413.348175,533.297363 416.855347,538.081726 
	C420.326599,542.817078 425.144012,543.839905 431.449799,542.089722 
M659.387451,492.187103 
	C655.105103,490.539001 650.911499,488.533203 646.492371,487.436066 
	C644.938293,487.050201 641.849731,488.398102 641.144531,489.800507 
	C637.890747,496.270996 634.827087,502.904510 632.526733,509.758667 
	C631.369629,513.206360 633.441162,516.228943 637.543335,516.860229 
	C647.739990,518.429321 661.726929,505.310242 660.768921,495.056915 
	C660.695862,494.275391 660.198914,493.533447 659.387451,492.187103 
M275.555817,523.083679 
	C274.535828,527.771912 277.098907,530.280334 281.031403,531.775330 
	C290.329590,535.310303 303.465302,527.880310 307.048523,517.244263 
	C308.497467,512.943298 307.390900,509.278351 304.249939,506.419800 
	C300.155212,502.693237 293.560028,501.461853 290.528076,504.587341 
	C285.186829,510.093353 280.673492,516.402527 275.555817,523.083679 
M376.957794,511.237610 
	C373.558990,510.528412 370.189484,509.581238 366.755432,509.158447 
	C359.097504,508.215729 358.434845,508.740448 354.677673,515.552124 
	C353.323029,518.008057 351.037598,520.063721 350.156250,522.637512 
	C349.161713,525.541626 348.033508,529.512878 349.271362,531.733704 
	C350.357758,533.682922 354.698090,534.806274 357.489838,534.620544 
	C364.214844,534.173035 369.139465,530.272339 372.314941,524.311340 
	C373.927094,521.285095 375.562134,518.555481 379.164948,521.979004 
	C382.741821,518.001099 382.393799,515.976135 376.957794,511.237610 
z"/>
<path fill="#000000" opacity="1.000000" stroke="none" 
	d="
M252.825699,516.981689 
	C249.546097,516.692078 246.699005,516.394958 243.851913,516.097839 
	C243.682480,515.488220 243.513046,514.878601 243.343628,514.268982 
	C248.617249,511.232086 253.890869,508.195190 260.472656,504.404968 
	C261.108490,508.228424 262.779327,511.949066 261.692200,513.129395 
	C259.763184,515.223633 256.160583,515.776489 252.825699,516.981689 
z"/>
<path fill="#000000" opacity="1.000000" stroke="none" 
	d="
M346.106842,695.997070 
	C327.352264,694.938293 309.171295,693.662903 291.998993,686.239563 
	C283.081543,682.384705 273.541016,680.982910 263.763458,680.906738 
	C257.343506,680.856750 251.454620,679.158997 246.594467,674.252747 
	C241.995911,669.610596 240.872787,664.587952 243.288559,658.807495 
	C247.775925,648.070190 252.449036,637.409546 257.135254,626.756714 
	C259.343018,621.737976 261.801971,616.830322 264.068817,611.836792 
	C265.839050,607.937317 268.703827,605.897400 273.061279,606.022705 
	C295.156586,606.657593 317.254791,607.822632 339.347473,607.729370 
	C358.938965,607.646729 377.414246,612.947571 396.258667,616.871216 
	C405.624634,618.821350 415.337860,619.276062 424.926514,619.931763 
	C433.081604,620.489441 436.878662,625.038879 435.479095,633.136230 
	C433.269531,645.919983 430.459625,658.497437 425.436279,670.546021 
	C421.905182,679.015259 416.409790,684.921631 408.276184,689.655518 
	C393.023163,698.533142 377.217133,699.237122 360.537079,696.480957 
	C355.985962,695.728943 351.244690,696.127502 346.106842,695.997070 
z"/>
<path fill="#2C2C2C" opacity="1.000000" stroke="none" 
	d="
M349.734833,581.154663 
	C334.273651,580.044617 319.225250,578.390259 304.159790,578.216919 
	C293.803497,578.097717 291.945618,575.158386 295.395752,564.715515 
	C298.845551,554.273743 307.413910,549.572754 318.037537,551.533691 
	C325.202301,552.856079 332.281830,554.706360 339.482300,555.748047 
	C345.170715,556.570984 351.060425,556.055786 356.726196,556.969360 
	C365.233337,558.341003 373.546356,561.084839 382.078186,562.099915 
	C399.692932,564.195740 416.981659,568.734619 434.980133,568.192383 
	C445.890961,567.863586 456.850189,569.386841 467.797028,569.861938 
	C471.253815,570.011963 474.750763,569.558960 478.211945,569.209534 
	C483.552521,568.670349 485.848816,571.141113 484.280182,576.325378 
	C481.942230,584.052246 479.487427,592.313965 470.284180,594.060791 
	C465.672363,594.936218 460.532806,593.453979 455.698730,592.641052 
	C447.569672,591.273865 439.551758,588.784363 431.384308,588.197144 
	C410.511078,586.696289 389.567444,586.193420 368.682312,584.827698 
	C362.450104,584.420166 356.318176,582.479858 349.734833,581.154663 
M329.271240,559.059204 
	C325.159210,558.536743 321.013824,557.441467 316.945953,557.678101 
	C313.845093,557.858521 310.330444,559.108459 307.971191,561.058044 
	C306.321960,562.420959 306.312653,565.768494 305.570892,568.229553 
	C307.526001,568.817200 309.449829,569.761169 311.441162,569.935974 
	C326.764526,571.281250 342.047089,571.377441 357.397369,574.475464 
	C374.671295,577.961670 392.709381,577.670898 410.417267,578.993469 
	C418.526398,579.599182 426.667816,579.884949 434.746124,580.762329 
	C445.309998,581.909668 455.813660,583.601624 466.366882,584.860901 
	C472.926819,585.643738 474.745056,583.987305 474.748352,576.901123 
	C463.835205,575.940552 452.783234,573.900146 441.801788,574.227112 
	C420.005005,574.876160 398.704163,571.897583 377.437866,567.955505 
	C369.290222,566.445190 361.214172,564.548767 353.066406,563.039246 
	C345.433929,561.625183 337.749786,560.489929 329.271240,559.059204 
z"/>
<path fill="#272727" opacity="1.000000" stroke="none" 
	d="
M550.203430,558.274719 
	C544.917480,562.419556 539.198608,563.592773 532.994629,562.960449 
	C529.288330,562.582703 527.284729,560.586792 527.059143,556.843872 
	C526.363281,545.302551 541.707397,529.601440 553.291870,530.002991 
	C561.564941,530.289734 565.041138,534.915894 562.586609,542.690063 
	C560.504517,549.284424 556.199768,554.252869 550.203430,558.274719 
z"/>
<path fill="#2C2C2C" opacity="1.000000" stroke="none" 
	d="
M298.446747,473.642822 
	C291.979523,476.860687 287.658478,476.571716 283.370392,472.695312 
	C278.985199,468.731140 279.404053,463.783630 280.992432,458.838257 
	C284.226837,448.768311 291.233582,442.716125 301.488586,440.443359 
	C308.752502,438.833557 314.433472,444.492798 311.494873,451.705170 
	C308.358368,459.403320 303.099609,466.236755 298.446747,473.642822 
M294.681976,465.341095 
	C296.333618,463.546326 298.275787,461.930054 299.528809,459.890411 
	C300.290253,458.650940 299.987427,456.757690 300.162720,455.158142 
	C298.488525,455.125244 296.578339,454.570160 295.200409,455.192841 
	C293.511536,455.955994 291.937927,457.488922 290.902100,459.073212 
	C288.867188,462.185547 290.197937,464.700195 294.681976,465.341095 
z"/>
<path fill="#2C2C2C" opacity="1.000000" stroke="none" 
	d="
M553.078125,468.798431 
	C558.283081,465.776611 563.690552,466.309845 567.249023,469.796234 
	C569.523987,472.025116 569.967529,476.944733 569.855713,480.616150 
	C569.628052,488.096313 567.160767,494.904938 560.803894,499.680756 
	C554.675598,504.284943 544.378479,501.856781 542.175842,494.678864 
	C541.273315,491.737762 541.966125,487.679443 543.340759,484.801758 
	C545.966370,479.305695 549.601074,474.291748 553.078125,468.798431 
M559.237244,485.885376 
	C558.597290,485.774078 557.927551,485.485840 557.323303,485.587311 
	C555.955688,485.816986 553.627625,486.001465 553.476990,486.631561 
	C553.156494,487.971802 553.974548,489.584320 554.325989,491.085266 
	C555.737122,490.666992 557.356995,490.543945 558.494995,489.739319 
	C559.448364,489.065216 559.838928,487.595154 560.661682,486.292725 
	C560.417358,486.163879 560.172974,486.035004 559.237244,485.885376 
z"/>
<path fill="#2D2D2D" opacity="1.000000" stroke="none" 
	d="
M393.813568,479.804626 
	C389.476196,485.000061 384.718994,488.589417 377.820740,487.935516 
	C372.101410,487.393372 368.656738,483.343048 369.931274,477.695923 
	C372.274719,467.312592 376.307739,458.079376 387.955139,454.867981 
	C396.157959,452.606323 401.941589,457.340637 399.957062,465.506439 
	C398.774689,470.371552 396.064941,474.865417 393.813568,479.804626 
M381.606384,478.123474 
	C383.971649,476.179626 386.436554,474.337280 388.612457,472.200562 
	C389.015411,471.804901 388.536865,469.983276 387.934387,469.264893 
	C387.480408,468.723572 386.086243,468.571198 385.269897,468.804108 
	C382.122040,469.702332 380.099396,474.185852 381.606384,478.123474 
z"/>
<path fill="#2C2C2C" opacity="1.000000" stroke="none" 
	d="
M492.888214,556.390137 
	C481.003021,558.024902 476.430847,552.672607 480.318695,541.829468 
	C481.460297,538.645691 483.863373,535.929260 485.545471,532.918762 
	C486.606262,531.020203 487.417664,528.980591 488.308502,526.989685 
	C488.638702,526.251709 488.763580,524.879944 489.173187,524.802063 
	C493.909424,523.901428 498.722290,522.429565 503.432892,522.675903 
	C507.218597,522.873779 508.611877,526.604919 509.005859,530.475098 
	C510.294556,543.135254 501.413025,549.425964 492.888214,556.390137 
M489.192261,545.855408 
	C489.932526,546.426025 491.259247,547.558899 491.328735,547.486389 
	C494.431458,544.250183 497.423645,540.907898 501.042450,536.898499 
	C493.456116,535.871094 491.670959,537.385315 489.192261,545.855408 
z"/>
<path fill="#2C2C2C" opacity="1.000000" stroke="none" 
	d="
M525.111023,463.892731 
	C529.846313,471.422424 528.666138,478.577393 524.620483,485.403503 
	C520.682434,492.047943 514.592529,494.761597 506.877075,493.946045 
	C500.843292,493.308167 498.167908,490.586975 498.029358,484.661072 
	C497.802094,474.941284 504.414124,465.212341 513.603943,461.823120 
	C517.661194,460.326782 521.432861,460.931580 525.111023,463.892731 
M516.494019,471.999451 
	C516.968445,467.740417 514.327332,470.130890 513.250183,470.718781 
	C509.619843,472.699982 507.454742,480.416962 509.625824,485.690765 
	C511.502533,484.019226 513.769775,482.883148 514.546570,481.098419 
	C515.677673,478.499695 515.735718,475.433929 516.494019,471.999451 
z"/>
<path fill="#2C2C2C" opacity="1.000000" stroke="none" 
	d="
M341.893799,449.620422 
	C347.442352,446.736298 352.584229,447.688416 356.638367,451.231720 
	C358.627502,452.970215 359.788635,456.642212 359.826263,459.459137 
	C360.001587,472.592804 344.908783,484.093842 333.429962,479.934570 
	C328.488800,478.144135 326.562531,474.697144 328.248688,469.827240 
	C330.945465,462.038300 335.141449,455.164978 341.893799,449.620422 
M340.229309,466.630432 
	C339.667206,467.986115 339.105103,469.341827 338.361908,471.134277 
	C345.111389,471.714355 348.465393,468.206207 351.234772,463.948242 
	C351.833160,463.028198 352.069763,460.758667 351.641998,460.503387 
	C350.550262,459.851929 348.549103,459.344147 347.698761,459.927002 
	C345.141174,461.680023 342.958801,463.980499 340.229309,466.630432 
z"/>
<path fill="#2C2C2C" opacity="1.000000" stroke="none" 
	d="
M461.610107,489.559845 
	C456.789764,485.308319 455.525208,480.072998 458.086304,474.945770 
	C460.609161,469.895142 463.853912,464.818146 467.963531,461.037018 
	C474.258820,455.244995 486.545532,460.096619 487.687622,468.604858 
	C488.716431,476.269012 486.103394,483.219635 480.091614,488.154785 
	C474.659943,492.613739 468.325256,493.030518 461.610107,489.559845 
M473.417053,467.811554 
	C468.409363,469.046661 468.366669,473.526031 467.588806,477.251099 
	C466.750977,481.263336 470.355743,483.906403 474.146210,482.215637 
	C478.245178,480.387238 479.757538,476.749359 479.877869,472.551941 
	C479.986420,468.765839 478.510834,466.387085 473.417053,467.811554 
z"/>
<path fill="#2C2C2C" opacity="1.000000" stroke="none" 
	d="
M429.428772,484.662750 
	C425.767426,485.526794 422.302094,487.056702 419.132233,486.588043 
	C416.717896,486.231049 413.376251,483.725220 412.714050,481.500580 
	C410.641815,474.539459 412.021454,464.167816 420.286255,459.147522 
	C425.627380,455.903198 431.143097,456.242950 436.448883,458.600006 
	C440.073517,460.210175 441.650940,463.432068 440.577057,467.682281 
	C438.847321,474.528137 435.312836,480.132507 429.428772,484.662750 
M425.153503,476.044250 
	C430.366669,473.591217 430.791199,471.678467 427.070801,467.405548 
	C422.845856,470.469940 422.347229,472.157532 425.153503,476.044250 
z"/>
<path fill="#2C2C2C" opacity="1.000000" stroke="none" 
	d="
M597.154724,471.854126 
	C607.250366,470.052673 615.088562,477.780426 612.271545,487.032745 
	C610.787537,491.906616 607.715698,496.472046 604.628662,500.633667 
	C601.542480,504.794159 596.870483,504.726990 592.373657,502.815155 
	C588.117004,501.005463 586.753723,497.406097 587.059570,493.048553 
	C587.637634,484.812347 590.129089,477.443848 597.154724,471.854126 
M600.575256,492.517609 
	C603.681641,490.204285 602.500793,487.991394 600.120117,484.880859 
	C599.698181,488.061584 595.745056,490.133759 600.575256,492.517609 
z"/>
<path fill="#2C2C2C" opacity="1.000000" stroke="none" 
	d="
M595.354614,539.391357 
	C597.682678,537.002197 599.611145,534.648560 601.968079,532.859497 
	C606.822388,529.174866 612.097290,530.870728 613.533997,536.327393 
	C616.694336,548.330200 610.162415,560.697632 598.706482,564.149902 
	C597.037170,564.653015 595.099243,564.792664 593.380981,564.513489 
	C585.972656,563.309692 583.655579,559.049622 587.107361,552.169800 
	C589.314758,547.769958 592.436890,543.829102 595.354614,539.391357 
M603.412048,545.138916 
	C601.754761,547.799561 600.097473,550.460205 597.936218,553.929993 
	C605.018555,552.077820 607.036682,549.252747 606.708618,542.673462 
	C605.634460,543.428711 604.754028,544.047729 603.412048,545.138916 
z"/>
<path fill="#2C2C2C" opacity="1.000000" stroke="none" 
	d="
M431.045807,542.176392 
	C425.144012,543.839905 420.326599,542.817078 416.855347,538.081726 
	C413.348175,533.297363 415.106903,528.492126 417.699646,524.066589 
	C423.714355,513.800293 433.415131,511.274323 443.793396,517.043152 
	C448.089172,519.430908 449.512238,526.099792 446.767670,531.242432 
	C443.479401,537.403687 438.171112,540.754883 431.045807,542.176392 
M430.494781,532.943481 
	C431.931213,532.600403 434.070435,532.724487 434.668793,531.824402 
	C436.292419,529.381775 437.262817,526.505005 438.492249,523.800415 
	C436.195251,522.947144 433.764038,521.140198 431.629364,521.440613 
	C427.283508,522.052063 426.387268,526.207336 425.988617,529.820740 
	C425.890167,530.713257 428.395538,531.893066 430.494781,532.943481 
z"/>
<path fill="#2C2C2C" opacity="1.000000" stroke="none" 
	d="
M659.643188,492.480103 
	C660.198914,493.533447 660.695862,494.275391 660.768921,495.056915 
	C661.726929,505.310242 647.739990,518.429321 637.543335,516.860229 
	C633.441162,516.228943 631.369629,513.206360 632.526733,509.758667 
	C634.827087,502.904510 637.890747,496.270996 641.144531,489.800507 
	C641.849731,488.398102 644.938293,487.050201 646.492371,487.436066 
	C650.911499,488.533203 655.105103,490.539001 659.643188,492.480103 
z"/>
<path fill="#2C2C2C" opacity="1.000000" stroke="none" 
	d="
M275.684631,522.729492 
	C280.673492,516.402527 285.186829,510.093353 290.528076,504.587341 
	C293.560028,501.461853 300.155212,502.693237 304.249939,506.419800 
	C307.390900,509.278351 308.497467,512.943298 307.048523,517.244263 
	C303.465302,527.880310 290.329590,535.310303 281.031403,531.775330 
	C277.098907,530.280334 274.535828,527.771912 275.684631,522.729492 
M290.511932,516.975830 
	C289.244476,518.533875 287.977051,520.091980 286.501648,521.905701 
	C292.249756,523.425110 299.116821,519.751038 300.203796,515.052002 
	C300.410553,514.158203 299.976196,512.491882 299.339783,512.171753 
	C298.356384,511.677063 296.639862,511.568390 295.776703,512.129883 
	C293.997650,513.287231 292.576904,514.995483 290.511932,516.975830 
z"/>
<path fill="#2D2D2D" opacity="1.000000" stroke="none" 
	d="
M377.307190,511.402954 
	C382.393799,515.976135 382.741821,518.001099 379.164948,521.979004 
	C375.562134,518.555481 373.927094,521.285095 372.314941,524.311340 
	C369.139465,530.272339 364.214844,534.173035 357.489838,534.620544 
	C354.698090,534.806274 350.357758,533.682922 349.271362,531.733704 
	C348.033508,529.512878 349.161713,525.541626 350.156250,522.637512 
	C351.037598,520.063721 353.323029,518.008057 354.677673,515.552124 
	C358.434845,508.740448 359.097504,508.215729 366.755432,509.158447 
	C370.189484,509.581238 373.558990,510.528412 377.307190,511.402954 
M367.154663,519.520081 
	C366.746429,518.909607 366.338226,518.299133 365.930023,517.688660 
	C363.716980,519.680542 361.503967,521.672485 359.290924,523.664368 
	C359.799500,524.216064 360.308105,524.767822 360.816681,525.319519 
	C362.850830,523.565063 364.884949,521.810608 367.154663,519.520081 
z"/>
<path fill="#000000" opacity="1.000000" stroke="none" 
	d="
M329.679810,559.145630 
	C337.749786,560.489929 345.433929,561.625183 353.066406,563.039246 
	C361.214172,564.548767 369.290222,566.445190 377.437866,567.955505 
	C398.704163,571.897583 420.005005,574.876160 441.801788,574.227112 
	C452.783234,573.900146 463.835205,575.940552 474.748352,576.901123 
	C474.745056,583.987305 472.926819,585.643738 466.366882,584.860901 
	C455.813660,583.601624 445.309998,581.909668 434.746124,580.762329 
	C426.667816,579.884949 418.526398,579.599182 410.417267,578.993469 
	C392.709381,577.670898 374.671295,577.961670 357.397369,574.475464 
	C342.047089,571.377441 326.764526,571.281250 311.441162,569.935974 
	C309.449829,569.761169 307.526001,568.817200 305.570892,568.229614 
	C306.312653,565.768494 306.321960,562.420959 307.971191,561.058044 
	C310.330444,559.108459 313.845093,557.858521 316.945953,557.678101 
	C321.013824,557.441467 325.159210,558.536743 329.679810,559.145630 
z"/>
<path fill="#000000" opacity="1.000000" stroke="none" 
	d="
M294.344818,465.468231 
	C290.197937,464.700195 288.867188,462.185547 290.902100,459.073212 
	C291.937927,457.488922 293.511536,455.955994 295.200409,455.192841 
	C296.578339,454.570160 298.488525,455.125244 300.162720,455.158142 
	C299.987427,456.757690 300.290253,458.650940 299.528809,459.890411 
	C298.275787,461.930054 296.333618,463.546326 294.344818,465.468231 
z"/>
<path fill="#000000" opacity="1.000000" stroke="none" 
	d="
M560.478699,486.477509 
	C559.838928,487.595154 559.448364,489.065216 558.494995,489.739319 
	C557.356995,490.543945 555.737122,490.666992 554.325928,491.085266 
	C553.974548,489.584320 553.156494,487.971802 553.476990,486.631561 
	C553.627625,486.001465 555.955688,485.816986 557.323303,485.587311 
	C557.927551,485.485840 558.597290,485.774078 559.717773,486.041168 
	C560.198303,486.196960 560.478699,486.477509 560.478699,486.477509 
z"/>
<path fill="#000000" opacity="1.000000" stroke="none" 
	d="
M560.063477,486.051544 
	C560.172974,486.035004 560.417358,486.163879 560.570190,486.385132 
	C560.478699,486.477509 560.198303,486.196960 560.063477,486.051544 
z"/>
<path fill="#000000" opacity="1.000000" stroke="none" 
	d="
M381.307373,477.998901 
	C380.099396,474.185852 382.122040,469.702332 385.269897,468.804108 
	C386.086243,468.571198 387.480408,468.723572 387.934387,469.264893 
	C388.536865,469.983276 389.015411,471.804901 388.612457,472.200562 
	C386.436554,474.337280 383.971649,476.179626 381.307373,477.998901 
z"/>
<path fill="#000000" opacity="1.000000" stroke="none" 
	d="
M489.208679,545.523315 
	C491.670959,537.385315 493.456116,535.871094 501.042450,536.898499 
	C497.423645,540.907898 494.431458,544.250183 491.328735,547.486389 
	C491.259247,547.558899 489.932526,546.426025 489.208679,545.523315 
z"/>
<path fill="#000000" opacity="1.000000" stroke="none" 
	d="
M516.372681,472.283386 
	C515.735718,475.433929 515.677673,478.499695 514.546570,481.098419 
	C513.769775,482.883148 511.502533,484.019226 509.625824,485.690765 
	C507.454742,480.416962 509.619843,472.699982 513.250183,470.718781 
	C514.327332,470.130890 516.968445,467.740417 516.372681,472.283386 
z"/>
<path fill="#000000" opacity="1.000000" stroke="none" 
	d="
M340.429688,466.348938 
	C342.958801,463.980499 345.141174,461.680023 347.698761,459.927002 
	C348.549103,459.344147 350.550262,459.851929 351.641998,460.503387 
	C352.069763,460.758667 351.833160,463.028198 351.234772,463.948242 
	C348.465393,468.206207 345.111389,471.714355 338.361908,471.134277 
	C339.105103,469.341827 339.667206,467.986115 340.429688,466.348938 
z"/>
<path fill="#000000" opacity="1.000000" stroke="none" 
	d="
M473.776489,467.671814 
	C478.510834,466.387085 479.986420,468.765839 479.877869,472.551941 
	C479.757538,476.749359 478.245178,480.387238 474.146210,482.215637 
	C470.355743,483.906403 466.750977,481.263336 467.588806,477.251099 
	C468.366669,473.526031 468.409363,469.046661 473.776489,467.671814 
z"/>
<path fill="#000000" opacity="1.000000" stroke="none" 
	d="
M424.835327,476.046082 
	C422.347229,472.157532 422.845856,470.469940 427.070801,467.405548 
	C430.791199,471.678467 430.366669,473.591217 424.835327,476.046082 
z"/>
<path fill="#000000" opacity="1.000000" stroke="none" 
	d="
M600.294434,492.603027 
	C595.745056,490.133759 599.698181,488.061584 600.120117,484.880859 
	C602.500793,487.991394 603.681641,490.204285 600.294434,492.603027 
z"/>
<path fill="#000000" opacity="1.000000" stroke="none" 
	d="
M603.642822,544.902832 
	C604.754028,544.047729 605.634460,543.428711 606.708618,542.673462 
	C607.036682,549.252747 605.018555,552.077820 597.936218,553.929993 
	C600.097473,550.460205 601.754761,547.799561 603.642822,544.902832 
z"/>
<path fill="#000000" opacity="1.000000" stroke="none" 
	d="
M430.099365,532.942139 
	C428.395538,531.893066 425.890167,530.713257 425.988617,529.820740 
	C426.387268,526.207336 427.283508,522.052063 431.629364,521.440613 
	C433.764038,521.140198 436.195251,522.947144 438.492249,523.800415 
	C437.262817,526.505005 436.292419,529.381775 434.668793,531.824402 
	C434.070435,532.724487 431.931213,532.600403 430.099365,532.942139 
z"/>
<path fill="#000000" opacity="1.000000" stroke="none" 
	d="
M290.760345,516.726440 
	C292.576904,514.995483 293.997650,513.287231 295.776703,512.129883 
	C296.639862,511.568390 298.356384,511.677063 299.339783,512.171753 
	C299.976196,512.491882 300.410553,514.158203 300.203796,515.052002 
	C299.116821,519.751038 292.249756,523.425110 286.501648,521.905701 
	C287.977051,520.091980 289.244476,518.533875 290.760345,516.726440 
z"/>
<path fill="#000000" opacity="1.000000" stroke="none" 
	d="
M367.036865,519.788086 
	C364.884949,521.810608 362.850830,523.565063 360.816681,525.319519 
	C360.308105,524.767822 359.799500,524.216064 359.290924,523.664368 
	C361.503967,521.672485 363.716980,519.680542 365.929993,517.688660 
	C366.338226,518.299133 366.746429,518.909607 367.036865,519.788086 
z"/>
</svg>