<svg version="1.1" id="Layer_1" xmlns="http://www.w3.org/2000/svg" xmlns:xlink="http://www.w3.org/1999/xlink" x="0px" y="0px"
	 width="100%" viewBox="0 0 608 624" enable-background="new 0 0 608 624" xml:space="preserve">
<path fill="#000000" opacity="1.000000" stroke="none"
	d="
M293.468658,625.000000
	C291.441193,623.924927 289.682495,623.518127 287.821716,623.402100
	C271.866608,622.407410 256.170227,619.469788 240.679260,615.868103
	C210.085083,608.755005 180.950195,597.535217 153.293365,582.575806
	C137.725113,574.155090 124.423393,562.752625 112.625145,549.808472
	C91.642014,526.787354 71.003052,503.401123 54.038628,477.141541
	C45.270565,463.569244 37.112785,449.492706 30.717264,434.708801
	C25.467785,422.574097 23.162287,409.284912 20.792219,396.175842
	C15.686455,367.935455 14.066378,339.403076 13.721100,310.799011
	C13.489567,291.617950 16.648342,272.791962 21.000067,254.102005
	C24.312914,239.873871 26.538870,225.357147 31.685471,211.632187
	C39.691628,190.281372 44.699890,167.994766 52.449783,146.568024
	C56.949970,134.125992 63.434555,123.084244 73.305824,114.144714
	C86.140457,102.521538 97.651527,89.369453 111.720207,79.196075
	C131.603897,64.817734 152.841019,52.740425 175.689545,43.526878
	C186.332291,39.235252 196.557907,33.920033 207.056198,29.257006
	C228.019211,19.945850 249.801895,13.738429 272.737244,11.565295
	C288.604004,10.061914 304.231598,11.838550 319.943573,13.487678
	C341.449860,15.744980 362.689911,19.619774 383.863464,23.775854
	C397.237122,26.400921 410.333954,29.865793 424.183105,29.978985
	C432.166321,30.044231 439.387909,34.619621 446.454315,38.320572
	C455.912689,43.274296 465.645660,47.538029 475.604492,51.355270
	C480.436920,53.207539 484.833344,55.745285 488.457489,59.692432
	C493.872620,65.590195 500.278717,70.383057 506.746979,75.101471
	C521.304749,85.721046 531.375244,100.296288 540.660217,115.302208
	C550.206787,130.731033 558.789185,146.753754 567.932800,162.435410
	C576.700867,177.472916 579.751160,194.523834 585.077759,210.757416
	C589.427673,224.014435 591.982178,237.779938 594.649902,251.465469
	C595.950073,258.135284 597.034851,264.963440 597.105164,271.731506
	C597.235413,284.263184 599.192810,296.583405 600.594849,308.953796
	C602.534973,326.072418 602.635254,343.029938 600.634460,360.199249
	C597.872009,383.903931 592.008545,406.891571 586.694153,430.046448
	C581.397461,453.124054 570.251343,473.108307 555.937256,491.631104
	C540.744873,511.290497 524.926025,530.374146 507.010315,547.659607
	C483.686096,570.163208 456.686462,586.849304 426.892426,599.355896
	C406.598206,607.874817 385.937836,615.233887 364.637970,620.762146
	C359.012238,622.222351 353.295685,623.332642 347.310425,624.801758
	C329.312439,625.000000 311.624878,625.000000 293.468658,625.000000
M500.478790,539.980042
	C519.062744,522.620422 534.725525,502.741577 550.094543,482.596924
	C562.139648,466.809174 571.425842,449.763885 576.265625,430.300110
	C582.641174,404.659973 589.030945,379.035950 591.509583,352.662476
	C592.331299,343.918488 592.943604,335.170868 592.222778,326.268921
	C591.108093,312.503143 588.395325,298.859589 587.986633,285.123993
	C587.413574,265.866577 584.168274,247.152695 579.859497,228.519547
	C577.423157,217.983902 573.724670,207.787476 571.012085,197.353409
	C568.310486,186.961487 565.054688,176.907898 559.860291,167.545883
	C551.296143,152.110443 542.883362,136.576248 533.801514,121.446976
	C524.710388,106.302246 515.056458,91.400444 500.164642,81.076088
	C493.833984,76.687119 488.028687,71.728653 482.556915,66.394783
	C478.980713,62.908722 474.860046,60.508858 470.313721,58.898483
	C458.987488,54.886574 448.035736,50.013542 437.453247,44.399044
	C429.182617,40.011101 419.957306,36.866333 411.592194,39.846107
	C403.953033,42.567276 399.668823,38.683350 393.887390,36.664654
	C381.387817,32.300179 368.521484,29.850153 355.178741,32.138969
	C351.727966,32.730915 348.737640,32.378204 347.780579,28.301382
	C347.324341,26.357937 346.152893,25.605453 344.289459,25.365805
	C331.611237,23.735336 318.982300,21.500494 306.255798,20.514299
	C282.615051,18.682343 259.364380,21.376518 236.973877,29.418697
	C209.042023,39.451202 182.762146,53.229908 156.207138,66.287964
	C140.833328,73.847816 126.121696,82.861801 113.464348,94.671989
	C103.479485,103.988579 93.782440,113.612900 83.898140,123.038223
	C75.373169,131.167343 69.585449,140.907623 66.247253,152.172653
	C63.932484,159.984070 61.163521,167.677856 59.209610,175.575638
	C55.331505,191.251129 49.943329,206.454529 44.829273,221.717499
	C40.624695,234.266083 39.208260,247.339462 35.896095,260.022980
	C31.072489,278.494324 29.244127,297.370209 29.507774,316.352539
	C29.696941,329.972260 31.354683,343.568726 32.259300,357.182068
	C33.628651,377.789032 36.953026,398.102844 42.439854,417.973480
	C48.638607,440.422394 61.230618,459.822540 73.855820,478.982239
	C85.229309,496.242340 99.179695,511.605072 112.505478,527.381348
	C124.782959,541.916565 137.945358,555.657837 153.865448,566.297241
	C175.062881,580.463440 198.484131,589.984924 222.485489,598.205811
	C251.143402,608.021790 280.791840,612.713257 310.862610,614.811035
	C330.537903,616.183655 350.083313,614.878235 369.191559,609.312317
	C392.243500,602.597717 414.590759,594.175781 436.400543,584.044739
	C460.111298,573.030701 481.109253,558.391235 500.478790,539.980042
z"/>
<path fill="#000000" opacity="1.000000" stroke="none"
	d="
M437.398804,269.512939
	C414.764435,282.082245 390.463379,281.413788 366.136627,280.397095
	C360.704803,280.170135 356.140686,276.909485 351.129425,275.209595
	C336.007782,270.080261 321.396149,263.690948 308.767853,252.984299
	C305.271301,256.854919 301.373505,260.485107 298.309967,264.718903
	C293.536041,271.316559 287.372711,275.832245 279.933411,278.730072
	C267.231720,283.677704 255.757874,291.845276 242.385040,294.765411
	C214.098236,300.942352 186.718430,296.783508 161.953812,282.126007
	C143.727081,271.338104 130.206497,255.411041 123.128418,234.830338
	C120.417885,226.949005 120.267830,218.823837 121.012321,210.666550
	C122.973557,189.177460 131.137054,169.824173 141.702774,151.318146
	C145.650650,144.403381 150.979828,138.554337 157.226990,133.864960
	C171.724243,122.982689 188.107147,115.679161 205.355362,110.301094
	C212.367828,108.114586 219.558167,108.884247 226.660767,109.708908
	C235.729858,110.761879 244.985596,110.116966 253.886444,112.624115
	C256.556122,113.376091 259.447052,113.798531 260.508148,117.161964
	C261.163239,119.238495 263.272888,118.544670 264.846924,118.728096
	C273.446716,119.730247 281.929565,120.967682 289.973236,124.627632
	C294.946869,126.890709 299.186401,129.850540 303.119812,134.569183
	C307.261108,129.296021 313.096100,126.528648 317.672821,122.342361
	C324.699524,115.915024 332.574677,111.768776 341.904938,110.426476
	C356.840027,108.277817 371.588135,103.991379 386.893555,105.701187
	C407.990662,108.057983 428.866516,111.040062 445.169952,126.875023
	C448.806183,130.406769 452.067505,134.266876 454.652008,138.414322
	C464.181122,153.705963 473.284210,169.350494 474.008026,188.047653
	C474.407959,198.378189 477.516205,208.438873 477.160706,218.746887
	C476.715179,231.664078 472.016083,243.458191 465.257782,254.310303
	C462.290070,259.075684 457.510895,262.005493 451.851105,263.217590
	C446.744171,264.311310 442.056030,266.427002 437.398804,269.512939
M252.025482,280.534698
	C258.875061,277.513763 265.721527,274.504364 272.675781,271.708435
	C277.825165,269.638123 283.346313,267.858337 287.406677,263.548615
	C295.565674,254.888580 302.294586,245.246948 307.885315,234.758926
	C311.709320,227.585297 315.475494,218.017914 315.591309,214.783463
	C302.353241,225.760803 287.513062,227.953018 271.333435,222.122620
	C266.315369,220.314362 262.413788,216.624313 261.324402,211.665482
	C259.490936,203.319778 258.593414,194.451660 260.496613,186.188812
	C262.993195,175.349472 272.360077,169.058289 280.175842,162.011398
	C281.262939,161.031265 283.330780,160.672119 284.898163,160.769913
	C292.961823,161.273087 300.841370,157.076111 309.179901,160.157196
	C305.584045,153.425217 301.599670,147.393250 297.352417,141.454987
	C292.964203,135.319611 286.965759,132.293167 280.209656,130.184586
	C273.657623,128.139725 266.854492,127.597359 260.034515,127.330269
	C255.062454,127.135544 250.386215,126.369682 247.453476,121.654434
	C246.347290,119.875938 244.433624,119.535149 242.625183,119.530319
	C233.805038,119.506744 225.079468,117.864388 216.220734,118.229637
	C212.282425,118.392029 208.410553,118.967445 205.129028,120.762596
	C195.359467,126.106987 185.302490,130.914413 175.802490,136.778168
	C165.570236,143.093903 158.182724,151.556671 152.869019,162.399719
	C147.546875,173.259979 143.729263,184.619110 140.805527,196.181000
	C137.701385,208.456223 136.140793,221.134750 141.529129,233.423233
	C148.192581,248.619705 158.318970,261.475616 172.387634,269.821075
	C196.865158,284.341003 223.226089,289.946014 252.025482,280.534698
M414.506561,263.977020
	C423.930511,261.254913 431.142761,254.089767 440.205688,250.878784
	C448.528442,247.930054 452.806122,242.126083 455.135651,234.249283
	C456.982117,228.005905 460.102875,221.923111 458.256378,215.119278
	C456.448730,214.758957 455.351105,215.781616 454.355865,216.471985
	C441.708405,225.244827 427.467285,226.267609 412.755951,225.346619
	C405.765594,224.909012 399.091187,220.702621 398.323547,214.473557
	C397.499939,207.790497 395.254791,201.154251 396.618317,194.248932
	C397.493439,189.816956 398.497894,185.564240 401.663727,181.999725
	C408.852112,173.906189 416.458405,167.288971 428.134369,165.964920
	C435.893433,165.085052 443.327820,162.025986 450.334991,167.872818
	C450.442627,167.962616 450.879974,167.657288 451.431458,167.422012
	C446.554443,155.955963 441.814301,144.560181 433.067841,135.174957
	C419.804504,120.943016 402.026062,118.148750 384.341705,115.329926
	C372.056610,113.371719 359.902618,116.958862 347.694946,117.641335
	C331.789062,118.530556 322.133362,129.196350 310.995300,137.841248
	C309.508270,138.995422 307.943939,140.455643 309.376526,142.924438
	C312.895538,148.988678 316.438202,155.161133 321.797302,159.678314
	C327.251709,164.275803 329.855011,169.574265 329.385590,176.630325
	C329.142883,180.278656 329.723022,184.005646 329.259827,187.610809
	C327.998901,197.425537 328.737793,207.378723 325.096252,217.059814
	C321.521057,226.564514 317.413544,235.750259 312.840057,244.660492
	C318.294586,252.497314 326.754822,255.980270 334.668854,259.308105
	C348.679962,265.199707 363.118774,270.930450 378.828674,269.531158
	C390.547272,268.487427 402.253143,266.965668 414.506561,263.977020
z"/>
<path fill="#000000" opacity="1.000000" stroke="none"
	d="
M435.243835,459.205780
	C424.574402,471.519928 413.081299,482.398987 398.228790,488.716003
	C390.968964,491.803711 384.024109,495.020386 378.130707,500.361267
	C376.549774,501.793976 374.226624,502.412659 372.034210,502.246307
	C353.334473,500.827423 334.977081,505.356171 316.345184,505.362488
	C306.747650,505.365723 297.161743,507.617126 287.561859,505.052246
	C278.055542,502.512299 269.330750,497.652344 259.873260,495.242249
	C242.659119,490.855499 232.763763,476.859253 220.150360,466.420288
	C218.930206,465.410492 218.267288,463.727356 216.987656,461.824310
	C209.756058,471.308044 198.837189,473.083069 188.552032,476.175781
	C184.167282,477.494263 179.637695,477.256104 175.156967,477.222961
	C171.761093,477.197845 170.105545,474.934601 169.759995,471.777924
	C169.104401,465.788940 172.028656,460.672272 177.886093,459.817566
	C188.389587,458.284821 196.430206,451.675903 205.004120,446.734344
	C213.131104,442.050415 216.654053,432.314362 219.368683,423.467224
	C221.463425,416.640381 223.768021,409.614777 222.831741,402.033142
	C222.279083,397.557983 226.115082,393.552826 229.982086,393.141571
	C234.180374,392.695099 237.119431,395.331573 238.693909,400.335144
	C242.255234,411.652679 237.750946,421.946594 234.917633,432.473358
	C233.989197,435.922882 231.054138,438.943542 232.219421,442.824890
	C234.546509,450.575867 236.875443,457.958740 243.739700,463.690491
	C256.579407,474.411865 271.443298,479.419647 287.389465,482.764191
	C295.647247,484.496185 303.542755,487.363556 312.279541,486.771362
	C321.457153,486.149292 330.306396,484.003845 339.203461,482.141174
	C344.941101,480.939972 350.857391,481.512634 356.469696,479.748535
	C372.068878,474.845337 388.527130,472.170502 401.826233,461.439240
	C408.773651,455.833313 414.286346,449.090759 418.973846,441.617004
	C421.526947,437.546356 433.049164,435.300293 435.006348,439.164337
	C436.759552,442.625580 439.368866,445.698730 440.541290,449.273346
	C441.973724,453.640686 437.363068,455.771271 435.243835,459.205780
z"/>
<path fill="#000000" opacity="1.000000" stroke="none"
	d="
M325.098389,341.764679
	C324.788025,346.947601 327.179718,348.526764 331.713257,348.768005
	C339.325470,349.173035 346.997589,349.135040 354.519684,350.679352
	C362.233398,352.262939 366.875732,356.915710 368.041168,364.720703
	C369.168304,372.268982 366.850220,378.534973 360.415070,382.965668
	C351.149170,389.345337 341.196747,393.347809 329.611603,392.468872
	C325.179260,392.132599 320.694122,392.061401 316.210663,393.095184
	C312.099731,394.043091 308.723907,391.586639 307.906281,387.817993
	C307.090607,384.058594 309.224060,380.904663 313.325531,379.645416
	C317.660339,378.314514 322.091827,377.620514 326.608856,377.761505
	C335.263336,378.031677 342.298920,374.090332 349.066681,369.379944
	C350.523682,368.365875 351.620789,366.930267 351.131195,365.184204
	C350.566742,363.171082 348.567017,363.292084 346.929169,363.407349
	C340.467529,363.862091 333.966217,364.090607 327.566406,365.008270
	C317.868317,366.398895 308.012177,362.943909 306.058838,350.585663
	C304.547180,341.021851 305.882294,331.669128 305.938965,322.239868
	C305.968964,317.242584 310.834961,313.862183 315.672577,314.181671
	C320.612701,314.507904 324.084076,318.151459 324.336456,323.383362
	C324.624725,329.359283 324.841766,335.338623 325.098389,341.764679
z"/>
</svg>
